<svg xmlns="http://www.w3.org/2000/svg" width="17" height="17" viewBox="0 0 17 17" fill="none">
<path d="M12.6154 3.16609C12.5587 3.16609 12.5021 3.15192 12.4525 3.12359C11.0925 2.42234 9.91666 2.12484 8.50708 2.12484C7.10458 2.12484 5.77291 2.45775 4.56166 3.12359C4.39166 3.21567 4.17916 3.15192 4.07999 2.98192C3.98791 2.81192 4.05166 2.59234 4.22166 2.50025C5.53916 1.78484 6.98416 1.4165 8.50708 1.4165C10.0158 1.4165 11.3333 1.74942 12.7783 2.49317C12.9554 2.58525 13.0192 2.79775 12.9271 2.96775C12.8633 3.09525 12.7429 3.16609 12.6154 3.16609ZM2.47916 6.88484C2.40833 6.88484 2.33749 6.86359 2.27374 6.82109C2.11083 6.70775 2.07541 6.48817 2.18874 6.32525C2.88999 5.33359 3.78249 4.55442 4.84499 4.009C7.06916 2.8615 9.91666 2.85442 12.1479 4.00192C13.2104 4.54734 14.1029 5.31942 14.8042 6.304C14.9175 6.45984 14.8821 6.6865 14.7192 6.79984C14.5562 6.91317 14.3367 6.87775 14.2233 6.71484C13.5858 5.82234 12.7783 5.12109 11.8221 4.63234C9.78916 3.59109 7.18958 3.59109 5.16374 4.63942C4.20041 5.13525 3.39291 5.84359 2.75541 6.73609C2.69874 6.83525 2.59249 6.88484 2.47916 6.88484ZM6.90624 15.4344C6.81416 15.4344 6.72208 15.399 6.65833 15.3282C6.04208 14.7119 5.70916 14.3153 5.23458 13.4582C4.74583 12.5869 4.49083 11.5244 4.49083 10.384C4.49083 8.28025 6.28999 6.56609 8.49999 6.56609C10.71 6.56609 12.5092 8.28025 12.5092 10.384C12.5092 10.5823 12.3533 10.7382 12.155 10.7382C11.9567 10.7382 11.8008 10.5823 11.8008 10.384C11.8008 8.66984 10.3204 7.27442 8.49999 7.27442C6.67958 7.27442 5.19916 8.66984 5.19916 10.384C5.19916 11.404 5.42583 12.3461 5.85791 13.1111C6.31124 13.9257 6.62291 14.2728 7.16833 14.8253C7.30291 14.9669 7.30291 15.1865 7.16833 15.3282C7.09041 15.399 6.99833 15.4344 6.90624 15.4344ZM11.985 14.124C11.1421 14.124 10.3983 13.9115 9.78916 13.4936C8.73374 12.7782 8.10333 11.6165 8.10333 10.384C8.10333 10.1857 8.25916 10.0298 8.45749 10.0298C8.65583 10.0298 8.81166 10.1857 8.81166 10.384C8.81166 11.3828 9.32166 12.3248 10.1858 12.9057C10.6887 13.2457 11.2767 13.4086 11.985 13.4086C12.155 13.4086 12.4383 13.3873 12.7217 13.3378C12.9129 13.3023 13.0971 13.4298 13.1325 13.6282C13.1679 13.8194 13.0404 14.0036 12.8421 14.039C12.4383 14.1169 12.0842 14.124 11.985 14.124ZM10.5612 15.5832C10.5329 15.5832 10.4975 15.5761 10.4692 15.569C9.34291 15.2573 8.60624 14.8394 7.83416 14.0815C6.84249 13.0969 6.29708 11.7865 6.29708 10.384C6.29708 9.2365 7.27458 8.3015 8.47874 8.3015C9.68291 8.3015 10.6604 9.2365 10.6604 10.384C10.6604 11.1419 11.3192 11.7582 12.1337 11.7582C12.9483 11.7582 13.6071 11.1419 13.6071 10.384C13.6071 7.71359 11.305 5.54609 8.47166 5.54609C6.45999 5.54609 4.61833 6.66525 3.78958 8.40067C3.51333 8.97442 3.37166 9.64734 3.37166 10.384C3.37166 10.9365 3.42124 11.8078 3.84624 12.9411C3.91708 13.1253 3.82499 13.3307 3.64083 13.3944C3.45666 13.4653 3.25124 13.3661 3.18749 13.189C2.84041 12.2611 2.67041 11.3403 2.67041 10.384C2.67041 9.534 2.83333 8.76192 3.15208 8.089C4.09416 6.11275 6.18374 4.83067 8.47166 4.83067C11.6946 4.83067 14.3154 7.31692 14.3154 10.3769C14.3154 11.5244 13.3379 12.4594 12.1337 12.4594C10.9296 12.4594 9.95208 11.5244 9.95208 10.3769C9.95208 9.619 9.29333 9.00275 8.47874 9.00275C7.66416 9.00275 7.00541 9.619 7.00541 10.3769C7.00541 11.5882 7.47291 12.7215 8.32999 13.5715C9.00291 14.2373 9.64749 14.6057 10.6462 14.8819C10.8375 14.9315 10.9437 15.1298 10.8942 15.314C10.8587 15.4769 10.71 15.5832 10.5612 15.5832Z" fill="#267FF5"/>
</svg>

