<svg width="25" height="24" viewBox="0 0 25 24" fill="none" xmlns="http://www.w3.org/2000/svg">
<g id="Arrow right">
<path id="Vector" fill-rule="evenodd" clip-rule="evenodd" d="M15.7194 6.969C15.789 6.89915 15.8718 6.84374 15.9629 6.80593C16.054 6.76812 16.1517 6.74866 16.2504 6.74866C16.349 6.74866 16.4467 6.76812 16.5378 6.80593C16.6289 6.84374 16.7117 6.89915 16.7814 6.969L21.2814 11.469C21.3512 11.5387 21.4066 11.6214 21.4444 11.7125C21.4822 11.8037 21.5017 11.9013 21.5017 12C21.5017 12.0986 21.4822 12.1963 21.4444 12.2874C21.4066 12.3786 21.3512 12.4613 21.2814 12.531L16.7814 17.031C16.6405 17.1718 16.4495 17.2509 16.2504 17.2509C16.0512 17.2509 15.8602 17.1718 15.7194 17.031C15.5785 16.8902 15.4994 16.6992 15.4994 16.5C15.4994 16.3008 15.5785 16.1098 15.7194 15.969L19.6899 12L15.7194 8.031C15.6495 7.96133 15.5941 7.87857 15.5563 7.78745C15.5185 7.69633 15.499 7.59865 15.499 7.5C15.499 7.40135 15.5185 7.30366 15.5563 7.21255C15.5941 7.12143 15.6495 7.03867 15.7194 6.969Z" fill="white"/>
<path id="Vector_2" fill-rule="evenodd" clip-rule="evenodd" d="M3.5 12C3.5 11.8011 3.57902 11.6103 3.71967 11.4697C3.86032 11.329 4.05109 11.25 4.25 11.25H20C20.1989 11.25 20.3897 11.329 20.5303 11.4697C20.671 11.6103 20.75 11.8011 20.75 12C20.75 12.1989 20.671 12.3897 20.5303 12.5303C20.3897 12.671 20.1989 12.75 20 12.75H4.25C4.05109 12.75 3.86032 12.671 3.71967 12.5303C3.57902 12.3897 3.5 12.1989 3.5 12Z" fill="white"/>
</g>
</svg>
