<svg width="17" height="17" viewBox="0 0 17 17" fill="none" xmlns="http://www.w3.org/2000/svg">
<g id="email" clip-path="url(#clip0_1135_38840)">
<path id="Vector" d="M14.1665 2.83331H2.83317C2.054 2.83331 1.42359 3.47081 1.42359 4.24998L1.4165 12.75C1.4165 13.5291 2.054 14.1666 2.83317 14.1666H14.1665C14.9457 14.1666 15.5832 13.5291 15.5832 12.75V4.24998C15.5832 3.47081 14.9457 2.83331 14.1665 2.83331ZM13.8832 5.84373L8.87525 8.97456C8.64859 9.11623 8.35109 9.11623 8.12442 8.97456L3.1165 5.84373C2.93942 5.7304 2.83317 5.53915 2.83317 5.33373C2.83317 4.85915 3.35025 4.57581 3.754 4.82373L8.49984 7.79165L13.2457 4.82373C13.6494 4.57581 14.1665 4.85915 14.1665 5.33373C14.1665 5.53915 14.0603 5.7304 13.8832 5.84373Z" fill="white"/>
</g>
<defs>
<clipPath id="clip0_1135_38840">
<rect width="17" height="17" fill="white"/>
</clipPath>
</defs>
</svg>
