<svg width="17" height="17" viewBox="0 0 17 17" fill="none" xmlns="http://www.w3.org/2000/svg">
<g id="Eye">
<path id="Vector" d="M9.93341 9.71184C9.74771 9.91113 9.52377 10.071 9.27496 10.1818C9.02614 10.2927 8.75754 10.3523 8.48519 10.3571C8.21283 10.3619 7.9423 10.3118 7.68973 10.2098C7.43715 10.1078 7.20772 9.95595 7.0151 9.76333C6.82249 9.57072 6.67064 9.34128 6.56862 9.08871C6.4666 8.83613 6.4165 8.5656 6.42131 8.29325C6.42611 8.02089 6.48573 7.75229 6.59659 7.50348C6.70746 7.25466 6.8673 7.03072 7.06659 6.84502M12.5163 12.2947C11.3605 13.1757 9.95309 13.6638 8.5 13.6875C3.76705 13.6875 1.0625 8.27843 1.0625 8.27843C1.90354 6.71108 3.07004 5.34171 4.48375 4.26218L12.5163 12.2947ZM7.08011 3.03161C7.54552 2.92267 8.02202 2.86822 8.5 2.86934C13.233 2.86934 15.9375 8.27843 15.9375 8.27843C15.5271 9.04626 15.0376 9.76913 14.477 10.4353L7.08011 3.03161Z" stroke="#777E90" stroke-width="1.5" stroke-linecap="round" stroke-linejoin="round"/>
<path id="Vector_2" d="M1.0625 0.840698L15.9375 15.7157" stroke="#777E90" stroke-width="1.5" stroke-linecap="round" stroke-linejoin="round"/>
</g>
</svg>
