<svg width="17" height="17" viewBox="0 0 17 17" fill="none" xmlns="http://www.w3.org/2000/svg">
<g id="fi_1551353" clip-path="url(#clip0_1158_728)">
<path id="Vector" d="M11.316 0H5.65967C4.66145 0.00113192 3.85255 0.810034 3.85156 1.80825V15.1918C3.85255 16.1901 4.66145 16.999 5.65967 17H11.316C12.3143 16.999 13.1232 16.1901 13.1243 15.1918V1.80825C13.1232 0.810034 12.3143 0.00113192 11.316 0ZM8.48793 15.4546C8.06105 15.4546 7.7151 15.1086 7.7151 14.6818C7.7151 14.255 8.06105 13.9091 8.48793 13.9091C8.91466 13.9091 9.26061 14.255 9.26061 14.6818C9.26061 15.1086 8.91466 15.4546 8.48793 15.4546ZM9.64702 2.31818H7.32884C7.11547 2.31818 6.94242 2.14514 6.94242 1.93177C6.94242 1.7184 7.11547 1.5455 7.32884 1.5455H9.64702C9.86039 1.5455 10.0333 1.7184 10.0333 1.93177C10.0333 2.14514 9.86039 2.31818 9.64702 2.31818Z" fill="white"/>
</g>
<defs>
<clipPath id="clip0_1158_728">
<rect width="17" height="17" fill="white"/>
</clipPath>
</defs>
</svg>
