<svg width="110" height="98" viewBox="0 0 110 98" fill="none" xmlns="http://www.w3.org/2000/svg">
<g id="Success">
<g id="Success_2">
<circle id="Ellipse 2689" opacity="0.1" cx="61.9851" cy="48.571" r="29.9851" fill="#23C38E"/>
<circle id="Ellipse 2688" cx="61.9851" cy="48.571" r="23.8117" fill="#23C38E"/>
<path id="Vector" d="M52.2841 48.5711L59.0454 55.6264L73.9792 40.6926" stroke="white" stroke-width="4" stroke-linecap="round" stroke-linejoin="round"/>
</g>
<g id="Element">
<path id="Vector 170" d="M1 69.609C5.5 71.4423 16.9451 73.4018 17.5 63.109C18.1934 50.2474 5.81425 59.6057 15.5 64.109C25.1858 68.6122 27 59.609 27 59.609" stroke="#76D2FD" stroke-width="2" stroke-linecap="round"/>
<path id="Vector 171" d="M92.5 21.5859C95.5 21.5859 101.7 19.8859 102.5 13.0859C103.5 4.58593 108 4.58593 109 5.08593" stroke="#76D2FD" stroke-width="2" stroke-linecap="round" stroke-linejoin="round"/>
<path id="Vector 172" d="M87 79.5859C89.6667 79.9193 95.1 82.4859 95.5 90.0859" stroke="#F4C36D" stroke-width="2" stroke-linecap="round" stroke-linejoin="round"/>
<circle id="Ellipse 2695" cx="101.5" cy="46.0859" r="3.5" fill="#76D2FD"/>
<circle id="Ellipse 2696" cx="72.5" cy="94.0859" r="3.5" fill="#14A3BF"/>
<circle id="Ellipse 2701" cx="63.5" cy="91.0859" r="1.5" fill="#70C043"/>
<circle id="Ellipse 2697" cx="30.5" cy="84.0859" r="3.5" fill="#70C043"/>
<circle id="Ellipse 2698" cx="23.5" cy="35.0859" r="3.5" fill="#F4C36D"/>
<circle id="Ellipse 2699" cx="52.5" cy="4.08594" r="3.5" fill="#C05DFE"/>
<circle id="Ellipse 2700" cx="62.5" cy="10.0859" r="1.5" fill="#F8C264"/>
</g>
</g>
</svg>
