<svg xmlns="http://www.w3.org/2000/svg" width="24" height="24" viewBox="0 0 24 24" fill="none">
  <path opacity="0.4" d="M21.49 7.80863V7.81V16.19C21.49 17.9106 20.9791 19.2238 20.0964 20.1064C19.2138 20.9891 17.9006 21.5 16.18 21.5H7.81C6.08945 21.5 4.77634 20.9891 3.89377 20.1054C3.01114 19.2217 2.5 17.9059 2.5 16.18V7.81C2.5 6.08944 3.01093 4.77618 3.89355 3.89355C4.77618 3.01093 6.08944 2.5 7.81 2.5H16.19C17.9107 2.5 19.2237 3.01097 20.105 3.89333C20.9861 4.77559 21.4947 6.08838 21.49 7.80863Z" fill="#267FF5" stroke="#267FF5"/>
  <path d="M7.17902 14.6868L7.17907 14.6868L7.17204 14.6815C7.06719 14.602 7.04202 14.4476 7.12776 14.3331L9.50485 11.2469C9.71634 10.9779 10.0088 10.8087 10.3434 10.766L10.3448 10.7658C10.6698 10.7234 11.0056 10.8151 11.2713 11.0233C11.2714 11.0234 11.2716 11.0234 11.2717 11.0235L13.0946 12.458C13.2927 12.6223 13.5066 12.6381 13.6547 12.6176C13.8356 12.602 14.0271 12.5084 14.1672 12.3239L16.4753 9.34633L16.4753 9.34635L16.4787 9.34194C16.5599 9.23469 16.7169 9.2185 16.8148 9.29806L16.8214 9.30342L16.8282 9.30855C16.9327 9.38771 16.9561 9.53798 16.8674 9.65057L16.8649 9.65368L14.5566 12.6316C14.5563 12.6319 14.5561 12.6322 14.5558 12.6325C14.3439 12.9024 14.0541 13.068 13.7272 13.1028L13.7272 13.1027L13.7168 13.104C13.3815 13.1468 13.0551 13.0553 12.789 12.8468C12.7888 12.8467 12.7887 12.8466 12.7886 12.8465L10.9654 11.4119C10.7745 11.2538 10.5567 11.2296 10.3998 11.2529C10.2204 11.27 10.0311 11.3638 9.89247 11.5469L7.51399 14.6349L7.50179 14.6507L7.49089 14.6675C7.46657 14.7049 7.41711 14.74 7.33011 14.74C7.27758 14.74 7.22741 14.7249 7.17902 14.6868Z" fill="#267FF5" stroke="#267FF5"/>
</svg>