<svg xmlns="http://www.w3.org/2000/svg" width="17" height="13" viewBox="0 0 17 13" fill="none">
  <path d="M8.19748 1.64835L8.49967 1.8776L8.80187 1.64835C9.70276 0.964908 11.0609 0.6875 12.3955 0.6875C13.1831 0.6875 13.9935 0.78864 14.7205 1.01731C15.1291 1.15375 15.4763 1.30706 15.7913 1.51065V11.3653C14.7495 10.8611 13.5414 10.6667 12.3955 10.6667C11.7379 10.6667 10.9578 10.791 10.2241 10.9895C9.6183 11.1533 9.01745 11.3748 8.52499 11.6374C7.39851 10.9127 5.9208 10.6667 4.60384 10.6667C3.56491 10.6667 2.21526 10.9646 1.20801 11.4097V1.50941C2.10306 0.927062 3.36361 0.6875 4.60384 0.6875C5.93845 0.6875 7.29659 0.964908 8.19748 1.64835ZM1.62467 10.1042V10.788L2.27628 10.5806C2.99632 10.3515 3.79349 10.25 4.60384 10.25C5.47386 10.25 6.67537 10.5218 7.59641 10.9117L8.29134 11.2059V10.4513V2.30542V1.97413L7.98627 1.84498C6.96648 1.41324 5.63215 1.10417 4.60384 1.10417C3.71419 1.10417 2.81136 1.21514 1.97307 1.48187L1.62467 1.59272V1.95833V10.1042ZM14.7231 10.5806L15.3747 10.788V10.1042V1.95833V1.59272L15.0263 1.48187C14.188 1.21514 13.2852 1.10417 12.3955 1.10417C11.369 1.10417 10.034 1.40532 9.01024 1.84619L8.70801 1.97635V2.30542V10.4513V11.2059L9.40294 10.9117C10.324 10.5218 11.5255 10.25 12.3955 10.25C13.2059 10.25 14.003 10.3515 14.7231 10.5806Z" fill="#777E90" stroke="#777E90"/>
  <path opacity="0.3" d="M7.79167 2.30525C6.82125 1.89442 5.55333 1.604 4.60417 1.604C3.75417 1.604 2.90417 1.71025 2.125 1.95817V10.104C2.90417 9.85609 3.75417 9.74984 4.60417 9.74984C5.55333 9.74984 6.82125 10.0403 7.79167 10.4511V2.30525Z" fill="#777E90"/>
  <path d="M12.3952 4.4375C13.0185 4.4375 13.6206 4.50125 14.166 4.62167V3.545C13.6064 3.43875 13.0043 3.375 12.3952 3.375C11.4885 3.375 10.6527 3.48833 9.91602 3.70792V4.82C10.6173 4.57208 11.4602 4.4375 12.3952 4.4375Z" fill="#777E90"/>
  <path d="M12.3952 6.32178C13.0185 6.32178 13.6206 6.38553 14.166 6.50594V5.42928C13.6064 5.32303 13.0043 5.25928 12.3952 5.25928C11.4885 5.25928 10.6527 5.37261 9.91602 5.59219V6.70428C10.6173 6.46344 11.4602 6.32178 12.3952 6.32178Z" fill="#777E90"/>
  <path d="M12.3952 8.21289C13.0185 8.21289 13.6206 8.27664 14.166 8.39706V7.32039C13.6064 7.21414 13.0043 7.15039 12.3952 7.15039C11.4885 7.15039 10.6527 7.26372 9.91602 7.48331V8.59539C10.6173 8.34747 11.4602 8.21289 12.3952 8.21289Z" fill="#777E90"/>
</svg>