<svg xmlns="http://www.w3.org/2000/svg" width="24" height="24" viewBox="0 0 24 24" fill="none">
  <path d="M18.6818 18.8859L18.6809 18.8873C18.2743 19.512 17.805 20.1763 17.2761 20.6844C16.7429 21.1966 16.209 21.4926 15.673 21.5L15.6715 21.5001C15.2109 21.5079 14.9246 21.3783 14.5109 21.1912L14.496 21.1844L14.4948 21.1839C14.4767 21.1757 14.4584 21.1675 14.4401 21.1593C13.9499 20.9385 13.3529 20.6697 12.3472 20.68C11.3163 20.6805 10.7093 20.953 10.2027 21.1805L10.1979 21.1827L10.1952 21.1839L10.1837 21.1889C9.75968 21.3763 9.46176 21.508 8.98829 21.5001L8.98695 21.5C8.44312 21.4924 7.92371 21.221 7.415 20.7523C6.90621 20.2835 6.45368 19.6591 6.04902 19.0373C4.947 17.3433 4.33959 15.5099 4.17631 13.8462C4.0122 12.1739 4.29985 10.7177 4.92987 9.74143C5.86424 8.29845 7.3079 7.5 8.59995 7.5C9.30209 7.5 9.86727 7.69923 10.4678 7.91944L10.4678 7.91945L10.4718 7.92087C10.4835 7.92506 10.4953 7.92926 10.507 7.93347C11.0455 8.12588 11.6446 8.34 12.33 8.34C12.9847 8.34 13.5099 8.14034 13.9969 7.95525L14.0176 7.9474L14.0176 7.94741L14.0216 7.94586C14.6003 7.72024 15.1877 7.5 16.05 7.5C17.0544 7.5 18.1519 7.98573 19.028 8.8807C16.0894 10.9935 16.6129 15.47 19.698 17.0429C19.3795 17.7406 19.1563 18.162 18.6818 18.8859ZM14.3248 21.6558C14.7312 21.8398 15.1063 22.0097 15.68 22L14.29 21.64C14.3016 21.6453 14.3132 21.6505 14.3248 21.6558Z" fill="#267FF5" stroke="#267FF5"/>
  <path opacity="0.4" d="M13.4547 3.80927C13.9307 3.24188 14.6725 2.78061 15.3692 2.58905C15.3334 3.34357 15.0008 4.082 14.565 4.64339L14.565 4.64338L14.5635 4.64538C14.1022 5.24572 13.3624 5.71774 12.6293 5.84051C12.6467 5.10974 12.9996 4.36372 13.4547 3.80927Z" fill="#267FF5" stroke="#267FF5"/>
</svg>