<svg xmlns="http://www.w3.org/2000/svg" width="24" height="24" viewBox="0 0 24 24" fill="none">
  <g clip-path="url(#clip0_1464_27778)">
    <path opacity="0.3" d="M13.0698 14.5098H13.5698V14.0098V8.00977V7.50977H13.0698H11.0698H10.5698V8.00977V14.0098V14.5098H11.0698H13.0698ZM5.56982 13.0098C5.56982 9.41591 8.47597 6.50977 12.0698 6.50977C15.6637 6.50977 18.5698 9.41591 18.5698 13.0098C18.5698 16.6036 15.6637 19.5098 12.0698 19.5098C8.47597 19.5098 5.56982 16.6036 5.56982 13.0098Z" fill="#267FF5" stroke="#267FF5"/>
    <path d="M18.7463 7.03621L18.4301 7.35241L18.7091 7.7018C19.8714 9.15699 20.5698 11.0079 20.5698 12.9998C20.5698 17.694 16.7733 21.4998 12.0698 21.4998C7.36633 21.4998 3.56982 17.694 3.56982 12.9998C3.56982 8.30591 7.37597 4.49977 12.0698 4.49977C14.071 4.49977 15.9119 5.19775 17.3775 6.3702L17.7269 6.64976L18.0434 6.33332L19.1342 5.24249C19.3772 5.46391 19.6111 5.69997 19.8356 5.94693L18.7463 7.03621ZM9.56982 1.50977H14.5698V2.50977H9.56982V1.50977ZM12.5698 8.50977V13.5098H11.5698V8.50977H12.5698ZM4.56982 13.0098C4.56982 17.1559 7.92368 20.5098 12.0698 20.5098C16.216 20.5098 19.5698 17.1559 19.5698 13.0098C19.5698 8.86362 16.216 5.50977 12.0698 5.50977C7.92368 5.50977 4.56982 8.86362 4.56982 13.0098Z" fill="#267FF5" stroke="#267FF5"/>
  </g>
  <defs>
    <clipPath id="clip0_1464_27778">
      <rect width="24" height="24" fill="white"/>
    </clipPath>
  </defs>
</svg>