<svg xmlns="http://www.w3.org/2000/svg" width="20" height="20" viewBox="0 0 20 20" fill="none">
  <path d="M10 15.3024C10.1483 15.3024 10.2933 15.2579 10.4167 15.1747C10.54 15.0915 10.6361 14.9731 10.6929 14.8347C10.7497 14.6963 10.7645 14.544 10.7356 14.397C10.7066 14.2501 10.6352 14.1151 10.5303 14.0091C10.4254 13.9032 10.2918 13.831 10.1463 13.8018C10.0008 13.7726 9.85003 13.7876 9.71299 13.8449C9.57594 13.9022 9.45881 13.9993 9.3764 14.1239C9.29399 14.2485 9.25 14.395 9.25 14.5448C9.25 14.7457 9.32902 14.9384 9.46967 15.0805C9.61032 15.2226 9.80109 15.3024 10 15.3024ZM13.75 15.3024C13.8983 15.3024 14.0433 15.2579 14.1667 15.1747C14.29 15.0915 14.3861 14.9731 14.4429 14.8347C14.4997 14.6963 14.5145 14.544 14.4856 14.397C14.4566 14.2501 14.3852 14.1151 14.2803 14.0091C14.1754 13.9032 14.0418 13.831 13.8963 13.8018C13.7508 13.7726 13.6 13.7876 13.463 13.8449C13.3259 13.9022 13.2088 13.9993 13.1264 14.1239C13.044 14.2485 13 14.395 13 14.5448C13 14.7457 13.079 14.9384 13.2197 15.0805C13.3603 15.2226 13.5511 15.3024 13.75 15.3024ZM13.75 12.2721C13.8983 12.2721 14.0433 12.2276 14.1667 12.1444C14.29 12.0612 14.3861 11.9428 14.4429 11.8044C14.4997 11.666 14.5145 11.5137 14.4856 11.3667C14.4566 11.2198 14.3852 11.0848 14.2803 10.9788C14.1754 10.8729 14.0418 10.8007 13.8963 10.7715C13.7508 10.7423 13.6 10.7573 13.463 10.8146C13.3259 10.8719 13.2088 10.969 13.1264 11.0936C13.044 11.2182 13 11.3647 13 11.5145C13 11.7154 13.079 11.9081 13.2197 12.0502C13.3603 12.1923 13.5511 12.2721 13.75 12.2721ZM10 12.2721C10.1483 12.2721 10.2933 12.2276 10.4167 12.1444C10.54 12.0612 10.6361 11.9428 10.6929 11.8044C10.7497 11.666 10.7645 11.5137 10.7356 11.3667C10.7066 11.2198 10.6352 11.0848 10.5303 10.9788C10.4254 10.8729 10.2918 10.8007 10.1463 10.7715C10.0008 10.7423 9.85003 10.7573 9.71299 10.8146C9.57594 10.8719 9.45881 10.969 9.3764 11.0936C9.29399 11.2182 9.25 11.3647 9.25 11.5145C9.25 11.7154 9.32902 11.9081 9.46967 12.0502C9.61032 12.1923 9.80109 12.2721 10 12.2721ZM15.25 3.18117H14.5V2.42359C14.5 2.22267 14.421 2.02998 14.2803 1.8879C14.1397 1.74583 13.9489 1.66602 13.75 1.66602C13.5511 1.66602 13.3603 1.74583 13.2197 1.8879C13.079 2.02998 13 2.22267 13 2.42359V3.18117H7V2.42359C7 2.22267 6.92098 2.02998 6.78033 1.8879C6.63968 1.74583 6.44891 1.66602 6.25 1.66602C6.05109 1.66602 5.86032 1.74583 5.71967 1.8879C5.57902 2.02998 5.5 2.22267 5.5 2.42359V3.18117H4.75C4.15326 3.18117 3.58097 3.42061 3.15901 3.84683C2.73705 4.27305 2.5 4.85113 2.5 5.45389V16.06C2.5 16.6627 2.73705 17.2408 3.15901 17.667C3.58097 18.0932 4.15326 18.3327 4.75 18.3327H15.25C15.8467 18.3327 16.419 18.0932 16.841 17.667C17.2629 17.2408 17.5 16.6627 17.5 16.06V5.45389C17.5 4.85113 17.2629 4.27305 16.841 3.84683C16.419 3.42061 15.8467 3.18117 15.25 3.18117ZM16 16.06C16 16.2609 15.921 16.4536 15.7803 16.5956C15.6397 16.7377 15.4489 16.8175 15.25 16.8175H4.75C4.55109 16.8175 4.36032 16.7377 4.21967 16.5956C4.07902 16.4536 4 16.2609 4 16.06V9.24177H16V16.06ZM16 7.72662H4V5.45389C4 5.25297 4.07902 5.06028 4.21967 4.91821C4.36032 4.77613 4.55109 4.69632 4.75 4.69632H5.5V5.45389C5.5 5.65482 5.57902 5.84751 5.71967 5.98958C5.86032 6.13165 6.05109 6.21147 6.25 6.21147C6.44891 6.21147 6.63968 6.13165 6.78033 5.98958C6.92098 5.84751 7 5.65482 7 5.45389V4.69632H13V5.45389C13 5.65482 13.079 5.84751 13.2197 5.98958C13.3603 6.13165 13.5511 6.21147 13.75 6.21147C13.9489 6.21147 14.1397 6.13165 14.2803 5.98958C14.421 5.84751 14.5 5.65482 14.5 5.45389V4.69632H15.25C15.4489 4.69632 15.6397 4.77613 15.7803 4.91821C15.921 5.06028 16 5.25297 16 5.45389V7.72662ZM6.25 12.2721C6.39834 12.2721 6.54334 12.2276 6.66668 12.1444C6.79001 12.0612 6.88614 11.9428 6.94291 11.8044C6.99968 11.666 7.01453 11.5137 6.98559 11.3667C6.95665 11.2198 6.88522 11.0848 6.78033 10.9788C6.67544 10.8729 6.5418 10.8007 6.39632 10.7715C6.25083 10.7423 6.10003 10.7573 5.96299 10.8146C5.82594 10.8719 5.70881 10.969 5.6264 11.0936C5.54399 11.2182 5.5 11.3647 5.5 11.5145C5.5 11.7154 5.57902 11.9081 5.71967 12.0502C5.86032 12.1923 6.05109 12.2721 6.25 12.2721ZM6.25 15.3024C6.39834 15.3024 6.54334 15.2579 6.66668 15.1747C6.79001 15.0915 6.88614 14.9731 6.94291 14.8347C6.99968 14.6963 7.01453 14.544 6.98559 14.397C6.95665 14.2501 6.88522 14.1151 6.78033 14.0091C6.67544 13.9032 6.5418 13.831 6.39632 13.8018C6.25083 13.7726 6.10003 13.7876 5.96299 13.8449C5.82594 13.9022 5.70881 13.9993 5.6264 14.1239C5.54399 14.2485 5.5 14.395 5.5 14.5448C5.5 14.7457 5.57902 14.9384 5.71967 15.0805C5.86032 15.2226 6.05109 15.3024 6.25 15.3024Z" fill="#777E90"/>
</svg>