<svg xmlns="http://www.w3.org/2000/svg" width="20" height="20" viewBox="0 0 20 20" fill="none">
  <path d="M5.83342 12.4993H8.33342C8.55443 12.4993 8.76639 12.4116 8.92267 12.2553C9.07895 12.099 9.16675 11.887 9.16675 11.666C9.16675 11.445 9.07895 11.233 8.92267 11.0768C8.76639 10.9205 8.55443 10.8327 8.33342 10.8327H5.83342C5.6124 10.8327 5.40044 10.9205 5.24416 11.0768C5.08788 11.233 5.00008 11.445 5.00008 11.666C5.00008 11.887 5.08788 12.099 5.24416 12.2553C5.40044 12.4116 5.6124 12.4993 5.83342 12.4993ZM15.8334 4.16602H4.16675C3.50371 4.16602 2.86782 4.42941 2.39898 4.89825C1.93014 5.36709 1.66675 6.00297 1.66675 6.66602V14.166C1.66675 14.8291 1.93014 15.4649 2.39898 15.9338C2.86782 16.4026 3.50371 16.666 4.16675 16.666H15.8334C16.4965 16.666 17.1323 16.4026 17.6012 15.9338C18.07 15.4649 18.3334 14.8291 18.3334 14.166V6.66602C18.3334 6.00297 18.07 5.36709 17.6012 4.89825C17.1323 4.42941 16.4965 4.16602 15.8334 4.16602ZM16.6667 14.166C16.6667 14.387 16.579 14.599 16.4227 14.7553C16.2664 14.9116 16.0544 14.9993 15.8334 14.9993H4.16675C3.94573 14.9993 3.73377 14.9116 3.57749 14.7553C3.42121 14.599 3.33341 14.387 3.33341 14.166V9.16602H16.6667V14.166ZM16.6667 7.49935H3.33341V6.66602C3.33341 6.445 3.42121 6.23304 3.57749 6.07676C3.73377 5.92048 3.94573 5.83268 4.16675 5.83268H15.8334C16.0544 5.83268 16.2664 5.92048 16.4227 6.07676C16.579 6.23304 16.6667 6.445 16.6667 6.66602V7.49935Z" fill="#777E90"/>
</svg>