<svg xmlns="http://www.w3.org/2000/svg" width="17" height="17" viewBox="0 0 17 17" fill="none">
  <path d="M10.9157 12.6681C10.9142 12.6681 10.9131 12.6679 10.9116 12.6672C10.9097 12.6664 10.9071 12.6649 10.9045 12.6623C10.9019 12.6597 10.9003 12.657 10.8995 12.6552C10.8989 12.6537 10.8986 12.6525 10.8986 12.651C10.8986 12.6495 10.8989 12.6484 10.8995 12.6469C10.9003 12.645 10.9019 12.6424 10.9045 12.6398C10.9071 12.6372 10.9097 12.6356 10.9116 12.6348C10.9131 12.6342 10.9142 12.6339 10.9157 12.6339C13.1894 12.6339 15.0424 10.7809 15.0424 8.50727C15.0424 6.23363 13.1894 4.38061 10.9157 4.38061C8.64207 4.38061 6.78905 6.23363 6.78905 8.50727C6.78905 8.5088 6.78883 8.50993 6.78819 8.51143C6.78739 8.5133 6.78581 8.5159 6.7832 8.51851C6.7806 8.52112 6.77799 8.5227 6.77613 8.52349C6.77463 8.52413 6.77349 8.52436 6.77197 8.52436C6.77044 8.52436 6.76931 8.52413 6.7678 8.52349C6.76594 8.5227 6.76334 8.52112 6.76073 8.51851C6.75812 8.5159 6.75654 8.5133 6.75575 8.51143C6.75511 8.50993 6.75488 8.5088 6.75488 8.50727C6.75488 6.21167 8.6211 4.33936 10.9228 4.33936C13.2245 4.33936 15.0836 6.20459 15.0836 8.50019C15.0836 10.7958 13.2174 12.6681 10.9157 12.6681Z" fill="#292D32" stroke="#267FF5"/>
  <path d="M6.08491 4.33203C6.08643 4.33203 6.08757 4.33225 6.08907 4.33289C6.09093 4.33369 6.09354 4.33527 6.09615 4.33788C6.09876 4.34049 6.10033 4.34309 6.10113 4.34495C6.10177 4.34645 6.10199 4.34759 6.10199 4.34911C6.10199 4.35064 6.10177 4.35178 6.10113 4.35328C6.10033 4.35514 6.09876 4.35774 6.09615 4.36035C6.09354 4.36296 6.09093 4.36454 6.08907 4.36533C6.08757 4.36597 6.08643 4.3662 6.08491 4.3662C3.81127 4.3662 1.95824 6.21922 1.95824 8.49286C1.95824 10.7665 3.81127 12.6195 6.08491 12.6195C8.35855 12.6195 10.2116 10.7665 10.2116 8.49286C10.2116 8.49134 10.2118 8.4902 10.2124 8.4887C10.2132 8.48684 10.2148 8.48424 10.2174 8.48163C10.22 8.47902 10.2226 8.47744 10.2245 8.47665C10.226 8.47601 10.2271 8.47578 10.2287 8.47578C10.2292 8.47578 10.2298 8.47582 10.2303 8.47589C10.2311 8.47602 10.2319 8.47625 10.2328 8.47665C10.2347 8.47744 10.2373 8.47902 10.2399 8.48163C10.2425 8.48424 10.2441 8.48684 10.2449 8.4887C10.2453 8.4897 10.2455 8.49053 10.2457 8.49142C10.2457 8.49188 10.2457 8.49235 10.2457 8.49286C10.2457 10.7885 8.37952 12.6608 6.07783 12.6608C3.77613 12.6608 1.91699 10.7956 1.91699 8.49995C1.91699 6.20435 3.78321 4.33203 6.08491 4.33203Z" fill="#292D32" stroke="#267FF5"/>
</svg>