<svg xmlns="http://www.w3.org/2000/svg" width="24" height="24" viewBox="0 0 24 24" fill="none">
  <path opacity="0.4" d="M4.75 6.75C4.75 4.40614 6.65614 2.5 9 2.5C11.3435 2.5 13.2495 4.40562 13.25 6.74903C13.2405 9.04858 11.4468 10.9052 9.16098 10.99H9.16097H9.16094H9.16091H9.16088H9.16085H9.16082H9.16079H9.16076H9.16073H9.16071H9.16068H9.16065H9.16062H9.16059H9.16056H9.16053H9.1605H9.16047H9.16044H9.16041H9.16038H9.16035H9.16032H9.16029H9.16026H9.16023H9.1602H9.16018H9.16015H9.16012H9.16009H9.16006H9.16003H9.16H9.15997H9.15994H9.15991H9.15988H9.15985H9.15982H9.15979H9.15977H9.15974H9.15971H9.15968H9.15965H9.15962H9.15959H9.15956H9.15953H9.1595H9.15947H9.15944H9.15941H9.15938H9.15935H9.15932H9.15929H9.15927H9.15924H9.15921H9.15918H9.15915H9.15912H9.15909H9.15906H9.15903H9.159H9.15897H9.15894H9.15891H9.15888H9.15885H9.15882H9.15879H9.15876H9.15873H9.1587H9.15867H9.15864H9.15861H9.15858H9.15855H9.15852H9.15849H9.15846H9.15842H9.15839H9.15836H9.15833H9.1583H9.15827H9.15824H9.15821H9.15818H9.15815H9.15812H9.15809H9.15805H9.15802H9.15799H9.15796H9.15793H9.1579H9.15787H9.15784H9.1578H9.15777H9.15774H9.15771H9.15768H9.15764H9.15761H9.15758H9.15755H9.15752H9.15748H9.15745H9.15742H9.15739H9.15735H9.15732H9.15729H9.15725H9.15722H9.15719H9.15716H9.15712H9.15709H9.15706H9.15702H9.15699H9.15695H9.15692H9.15689H9.15685H9.15682H9.15679H9.15675H9.15672H9.15668H9.15665H9.15661H9.15658H9.15654H9.15651H9.15647H9.15644H9.1564H9.15637H9.15633H9.1563H9.15626H9.15623H9.15619H9.15616H9.15612H9.15608H9.15605H9.15601H9.15597H9.15594H9.1559H9.15586H9.15583H9.15579H9.15575H9.15572H9.15568H9.15564H9.1556H9.15557H9.15553H9.15549H9.15545H9.15541H9.15537H9.15534H9.1553H9.15526H9.15522H9.15518H9.15514H9.1551H9.15506H9.15502H9.15498H9.15494H9.1549H9.15486H9.15482H9.15478H9.15474H9.1547H9.15466H9.15462H9.15458H9.15454H9.1545H9.15445H9.15441H9.15437H9.15433H9.15429H9.15424H9.1542H9.15416H9.15412H9.15407H9.15403H9.15399H9.15394H9.1539H9.15386H9.15381H9.15377H9.15373H9.15368H9.15364H9.15359H9.15355H9.1535H9.15346H9.15341H9.15337H9.15332H9.15327H9.15323H9.15318H9.15314H9.15309H9.15304H9.153H9.15295H9.1529H9.15285H9.15281H9.15276H9.15271H9.15266H9.15261H9.15257H9.15252H9.15247H9.15242H9.15237H9.15232H9.15227H9.15222H9.15217H9.15212H9.15207H9.15202H9.15197H9.15192H9.15187H9.15181H9.15176H9.15171H9.15166H9.15161H9.15155H9.1515H9.15145H9.1514H9.15134H9.15129H9.15124H9.15118H9.15113H9.15107H9.15102H9.15096H9.15091H9.15085H9.1508H9.15074H9.15069H9.15063H9.15057H9.15052H9.15046H9.1504H9.15035H9.15029H9.15023H9.15017H9.15012H9.15006H9.15H9.14988H9.14977H9.14965H9.14953H9.14942H9.1493H9.14918H9.14907H9.14895H9.14884H9.14872H9.14861H9.1485H9.14838H9.14827H9.14815H9.14804H9.14793H9.14781H9.1477H9.14759H9.14748H9.14736H9.14725H9.14714H9.14703H9.14692H9.1468H9.14669H9.14658H9.14647H9.14636H9.14625H9.14614H9.14603H9.14592H9.14581H9.1457H9.14559H9.14549H9.14538H9.14527H9.14516H9.14505H9.14494H9.14484H9.14473H9.14462H9.14451H9.14441H9.1443H9.14419H9.14409H9.14398H9.14388H9.14377H9.14366H9.14356H9.14345H9.14335H9.14324H9.14314H9.14303H9.14293H9.14283H9.14272H9.14262H9.14251H9.14241H9.14231H9.1422H9.1421H9.142H9.14189H9.14179H9.14169H9.14159H9.14148H9.14138H9.14128H9.14118H9.14108H9.14098H9.14088H9.14077H9.14067H9.14057H9.14047H9.14037H9.14027H9.14017H9.14007H9.13997H9.13987H9.13977H9.13967H9.13957H9.13947H9.13938H9.13928H9.13918H9.13908H9.13898H9.13888H9.13878H9.13869H9.13859H9.13849H9.13839H9.1383H9.1382H9.1381H9.138H9.13791H9.13781H9.13771H9.13762H9.13752H9.13742H9.13733H9.13723H9.13714H9.13704H9.13694H9.13685H9.13675H9.13666H9.13656H9.13647H9.13637H9.13628H9.13618H9.13609H9.13599H9.1359H9.1358H9.13571H9.13562H9.13552H9.13543H9.13533H9.13524H9.13515H9.13505H9.13496H9.13487H9.13477H9.13468H9.13459H9.13449H9.1344H9.13431H9.13422H9.13412H9.13403H9.13394H9.13385H9.13376C9.04328 10.9796 8.94918 10.9808 8.86253 10.989C6.52538 10.8911 4.75 9.03575 4.75 6.75Z" fill="#267FF5" stroke="#267FF5"/>
  <path d="M4.19868 20.1748L4.19731 20.1739C3.03836 19.4012 2.45996 18.4016 2.45996 17.3799C2.45996 16.3578 3.03872 15.3484 4.207 14.5661C5.51356 13.7017 7.25177 13.2549 9.01246 13.2549C10.7738 13.2549 12.5067 13.702 13.8026 14.5659C14.958 15.3362 15.5309 16.3355 15.54 17.3619C15.5392 18.3934 14.9603 19.3927 13.8008 20.1751C12.5 21.0483 10.7627 21.4999 8.99996 21.4999C7.23701 21.4999 5.49957 21.0482 4.19868 20.1748Z" fill="#267FF5" stroke="#267FF5"/>
  <path opacity="0.4" d="M14.8792 10.3317C15.7501 9.33399 16.223 7.99411 16.1083 6.56023L16.1083 6.56023L16.108 6.55705C16.0493 5.87783 15.8576 5.2439 15.5675 4.67475C15.755 4.62228 15.9524 4.5861 16.1536 4.56818C17.8383 4.42234 19.3449 5.67845 19.4916 7.38198C19.6286 9.04737 18.4534 10.4992 16.8288 10.7101H16.8099C16.8074 10.7101 16.8042 10.7101 16.8003 10.71C16.7634 10.7096 16.6675 10.7085 16.5601 10.7331C15.939 10.7554 15.3638 10.6084 14.8792 10.3317Z" fill="#267FF5" stroke="#267FF5"/>
  <path d="M21.4924 16.5432L21.4924 16.5432L21.4919 16.5488C21.4291 17.311 20.9422 18.0205 20.0099 18.5314L20.0093 18.5318C19.3889 18.873 18.6469 19.0964 17.8631 19.1947C18.1971 18.6686 18.4013 18.0865 18.4581 17.4762L18.4581 17.4762L18.4586 17.4701C18.575 16.0273 17.88 14.6879 16.6038 13.6604L16.6038 13.6604L16.6004 13.6578C16.3021 13.4218 15.9846 13.2071 15.6511 13.0133C17.3662 12.9099 19.1767 13.381 20.3762 14.349L20.3769 14.3495C21.2043 15.0151 21.5627 15.794 21.4924 16.5432Z" fill="#267FF5" stroke="#267FF5"/>
</svg>