<svg xmlns="http://www.w3.org/2000/svg" width="15" height="16" viewBox="0 0 15 16" fill="none">
  <path d="M10 8.5625V11.1875C10 13.375 9.125 14.25 6.9375 14.25H4.3125C2.125 14.25 1.25 13.375 1.25 11.1875V8.5625C1.25 6.375 2.125 5.5 4.3125 5.5H6.9375C9.125 5.5 10 6.375 10 8.5625Z" fill="#B1B5C3"/>
  <path opacity="0.4" d="M10.6876 1.75H8.0626C5.90635 1.75 5.03135 2.60625 5.00635 4.71875H6.9376C9.5626 4.71875 10.7813 5.9375 10.7813 8.5625V10.4937C12.8938 10.4688 13.7501 9.59375 13.7501 7.4375V4.8125C13.7501 2.625 12.8751 1.75 10.6876 1.75Z" fill="#B1B5C3"/>
</svg>