<svg xmlns="http://www.w3.org/2000/svg" width="17" height="17" viewBox="0 0 17 17" fill="none">
  <path d="M12.0417 15.5832H4.95833C4.17593 15.5832 3.54167 14.9489 3.54167 14.1665V4.95817H2.125V3.5415H4.95833V2.83317C4.95833 2.05077 5.5926 1.4165 6.375 1.4165H10.625C11.4074 1.4165 12.0417 2.05077 12.0417 2.83317V3.5415H14.875V4.95817H13.4583V14.1665C13.4583 14.9489 12.8241 15.5832 12.0417 15.5832ZM4.95833 4.95817V14.1665H12.0417V4.95817H4.95833ZM6.375 2.83317V3.5415H10.625V2.83317H6.375ZM10.625 12.7498H9.20833V6.37484H10.625V12.7498ZM7.79167 12.7498H6.375V6.37484H7.79167V12.7498Z" fill="#FA6C4C"/>
</svg>