<svg xmlns="http://www.w3.org/2000/svg" width="17" height="17" viewBox="0 0 17 17" fill="none">
  <path fill-rule="evenodd" clip-rule="evenodd" d="M4.95964 1.41797C4.02033 1.41797 3.11949 1.79111 2.4553 2.4553C1.79111 3.11949 1.41797 4.02033 1.41797 4.95964V12.043C1.41797 12.9823 1.79111 13.8831 2.4553 14.5473C3.11949 15.2115 4.02033 15.5846 4.95964 15.5846H12.043C12.9823 15.5846 13.8831 15.2115 14.5473 14.5473C15.2115 13.8831 15.5846 12.9823 15.5846 12.043V4.95964C15.5846 4.02033 15.2115 3.11949 14.5473 2.4553C13.8831 1.79111 12.9823 1.41797 12.043 1.41797H4.95964ZM11.1434 7.56913C11.207 7.50123 11.2566 7.42146 11.2894 7.33437C11.3222 7.24729 11.3376 7.1546 11.3345 7.06159C11.3315 6.96859 11.3102 6.87709 11.2718 6.79232C11.2334 6.70755 11.1787 6.63118 11.1108 6.56755C11.0429 6.50393 10.9631 6.4543 10.876 6.4215C10.789 6.38871 10.6963 6.37338 10.6033 6.37641C10.5103 6.37943 10.4188 6.40075 10.334 6.43914C10.2492 6.47752 10.1728 6.53223 10.1092 6.60013L7.92543 8.93055L6.84664 7.97218C6.70529 7.85468 6.52381 7.79672 6.34053 7.81055C6.15725 7.82438 5.98652 7.90891 5.86441 8.04628C5.74229 8.18366 5.67836 8.36312 5.68612 8.54676C5.69387 8.7304 5.77271 8.90383 5.90597 9.03043L7.49972 10.4471C7.63762 10.5696 7.81787 10.6335 8.00213 10.6251C8.1864 10.6168 8.36015 10.5369 8.48643 10.4025L11.1427 7.56913H11.1434Z" fill="#E9F2FE"/>
</svg>