<svg xmlns="http://www.w3.org/2000/svg" width="17" height="17" viewBox="0 0 17 17" fill="none">
  <g clip-path="url(#clip0_1555_4396)">
    <path d="M6.10138 11.163C6.11336 10.0565 6.4777 9.0346 7.08748 8.2041C6.44058 8.32328 5.85445 8.5 5.1 8.5C3.5051 8.5 2.07142 8.06293 1.13333 7.56184C1.13333 7.56184 1.13333 9.56907 1.13333 10.0434C1.13333 10.5177 2.89072 11.3333 5.1 11.3333C5.48795 11.3333 5.7361 11.2002 6.10138 11.163ZM6.2138 12.2908C5.81078 12.3317 5.52513 12.4667 5.1 12.4667C3.5051 12.4667 2.07142 12.0296 1.13333 11.5285C1.13333 11.5285 1.13333 13.1257 1.13333 13.6C1.13333 14.0743 2.89072 14.7333 5.1 14.7333C5.90889 14.7333 6.54678 14.5356 7.20246 14.3853C6.72474 13.7828 6.38034 13.0697 6.2138 12.2908ZM8.14142 15.3C7.26046 15.5912 6.27761 15.8667 5.1 15.8667C2.30189 15.8667 0 15.0035 0 13.6V2.26667C0 0.86321 2.30189 0 5.1 0C7.89811 0 10.2 0.86321 10.2 2.26667V4.31319V6.35971C10.5645 6.277 10.9438 6.23333 11.3333 6.23333C14.15 6.23333 16.4333 8.51668 16.4333 11.3333C16.4333 14.15 14.15 16.4333 11.3333 16.4333C10.1854 16.4333 8.99373 15.9401 8.14142 15.3ZM8.93441 6.07773V3.63783C7.99633 4.13892 6.6949 4.53333 5.1 4.53333C3.5051 4.53333 2.07142 4.09627 1.13333 3.59517C1.13333 3.59517 1.13333 5.60241 1.13333 6.07672C1.13333 6.55103 2.89072 7.32705 5.1 7.32705C7.30927 7.32705 8.93441 6.59368 8.93441 6.11937V6.07773ZM5.1 3.4C7.30927 3.4 9.06667 2.74098 9.06667 2.26667C9.06667 1.79236 7.30927 1.13333 5.1 1.13333C2.89072 1.13333 1.13333 1.79236 1.13333 2.26667C1.13333 2.74098 2.89072 3.4 5.1 3.4ZM11.3333 15.1345C13.5241 15.1345 15.158 13.3537 15.158 11.163C15.158 8.97228 13.5241 7.56184 11.3333 7.56184C9.1426 7.56184 7.5 9.1426 7.5 11.3333C7.5 13.5241 9.1426 15.1345 11.3333 15.1345ZM12.8917 12.0765C12.8917 12.3727 12.7956 12.6242 12.6035 12.8312C12.4114 13.0381 12.1429 13.1776 11.7979 13.2497V14.1667H11.0628V13.2839C10.7884 13.2611 10.5434 13.2013 10.3278 13.1045C10.1121 13.0077 9.92789 12.8853 9.775 12.7372L10.2925 12.1905C10.5865 12.4372 10.908 12.5606 11.2569 12.5606C11.4372 12.5606 11.5744 12.5246 11.6685 12.4524C11.7626 12.3803 11.8097 12.2835 11.8097 12.162C11.8097 12.0746 11.791 12.0025 11.7538 11.9456C11.7165 11.8886 11.6499 11.8364 11.5539 11.7889C11.4578 11.7415 11.3196 11.6912 11.1393 11.638C10.7002 11.5051 10.3905 11.3438 10.2102 11.1539C10.0298 10.9641 9.93965 10.7268 9.93965 10.442C9.93965 10.1497 10.0426 9.9067 10.2484 9.71307C10.4542 9.51943 10.7257 9.39604 11.0628 9.34288V8.5H11.7979V9.34858C12.1938 9.40932 12.5232 9.56689 12.7858 9.82127L12.3154 10.3509C12.0566 10.1459 11.7763 10.0434 11.4745 10.0434C11.3255 10.0434 11.2098 10.0709 11.1275 10.126C11.0452 10.181 11.004 10.2598 11.004 10.3623C11.004 10.4345 11.0246 10.4942 11.0658 10.5417C11.1069 10.5892 11.1775 10.6347 11.2775 10.6784C11.3774 10.7221 11.5293 10.7762 11.7332 10.8407C12.1331 10.9622 12.4261 11.116 12.6123 11.302C12.7986 11.4881 12.8917 11.7462 12.8917 12.0765Z" fill="#777E90"/>
  </g>
  <defs>
    <clipPath id="clip0_1555_4396">
      <rect width="17" height="17" fill="white"/>
    </clipPath>
  </defs>
</svg>