<svg xmlns="http://www.w3.org/2000/svg" width="17" height="17" viewBox="0 0 17 17" fill="none">
  <g clip-path="url(#clip0_1537_726)">
    <path d="M2.83333 3.75016H2.33333V4.25016V12.0418V12.5418H2.83333H9.41667V13.6668H0.5V12.5418H1.41667H1.91667V12.0418V4.25016C1.91667 3.74714 2.33031 3.3335 2.83333 3.3335H15.0833V3.75016H2.83333ZM15.5833 12.5418H16.0833V12.0418V7.0835V6.5835H15.5833H12.75H12.25V7.0835V12.0418V12.5418H12.75H15.5833ZM12.0417 6.16683H16.2917C16.4051 6.16683 16.5 6.26172 16.5 6.37516V13.4585C16.5 13.5719 16.4051 13.6668 16.2917 13.6668H12.0417C11.9282 13.6668 11.8333 13.5719 11.8333 13.4585V6.37516C11.8333 6.26172 11.9282 6.16683 12.0417 6.16683Z" fill="#323232" stroke="#267FF5"/>
  </g>
  <defs>
    <clipPath id="clip0_1537_726">
      <rect width="17" height="17" fill="white"/>
    </clipPath>
  </defs>
</svg>