<svg xmlns="http://www.w3.org/2000/svg" width="24" height="24" viewBox="0 0 24 24" fill="none">
  <path opacity="0.4" d="M8.75 15.7V15.2H8.25H6C4.43306 15.2 3.62906 14.996 3.18077 14.5727C2.74069 14.1572 2.51517 13.4056 2.5 11.8975V6C2.5 4.39643 2.71256 3.59455 3.15355 3.15355C3.59455 2.71256 4.39643 2.5 6 2.5H16C17.6036 2.5 18.4055 2.71256 18.8464 3.15355C19.2874 3.59455 19.5 4.39643 19.5 6V7.24787C19.3867 7.24278 19.2697 7.23999 19.15 7.23999H14.87C13.7728 7.23999 12.8824 7.41547 12.2889 8.00896C11.6955 8.60245 11.52 9.49286 11.52 10.59V11.9V15.2H9.75H9.25V15.7V19.25V19.75H9.75H11.5421C11.5555 19.9242 11.5753 20.0909 11.6024 20.25H4.95001C4.81615 20.25 4.70001 20.1339 4.70001 20C4.70001 19.8661 4.81615 19.75 4.95001 19.75H8.25H8.75V19.25V15.7Z" fill="#267FF5" stroke="#267FF5"/>
  <path d="M14.9258 15.3927L14.9254 15.3933C14.5799 15.8374 14.37 16.4046 14.37 17.0103C14.37 18.4664 15.5539 19.6503 17.01 19.6503C18.4662 19.6503 19.65 18.4664 19.65 17.0103C19.65 16.2161 19.2902 15.5036 18.7422 15.0166L18.7422 15.0165L18.7371 15.0121C18.2803 14.617 17.6754 14.3702 17.01 14.3702C16.1565 14.3702 15.4045 14.7789 14.9258 15.3927ZM19.15 8.24023C19.4382 8.24023 19.7076 8.25879 19.9384 8.28641C20.6 8.37167 20.9422 8.57332 21.1462 8.86304C21.3696 9.18046 21.5 9.70259 21.5 10.5903V19.1503C21.5 20.1931 21.3205 20.7277 21.024 21.0242C20.7275 21.3207 20.1929 21.5002 19.15 21.5002H14.87C14.1572 21.5002 13.6759 21.4164 13.3476 21.2633C13.0447 21.1221 12.8476 20.9112 12.7167 20.5708C12.597 20.2596 12.5298 19.8372 12.52 19.2462V10.5903C12.52 9.54743 12.6996 9.01283 12.9961 8.7163C13.2926 8.41978 13.8272 8.24023 14.87 8.24023H19.15ZM19.08 11.6602C19.08 10.5141 18.1562 9.59027 17.01 9.59027C15.8639 9.59027 14.94 10.514 14.94 11.6602C14.94 12.8064 15.8639 13.7302 17.01 13.7302C18.1562 13.7302 19.08 12.8063 19.08 11.6602Z" fill="#267FF5" stroke="#267FF5"/>
  <path opacity="0.4" d="M18.6501 17.0101C18.6501 17.914 17.914 18.6501 17.0101 18.6501C16.1063 18.6501 15.3701 17.914 15.3701 17.0101C15.3701 16.6359 15.5002 16.2832 15.7146 16.0074C16.0158 15.6213 16.4838 15.3701 17.0101 15.3701C17.4235 15.3701 17.7976 15.5225 18.0805 15.7661C18.431 16.0789 18.6501 16.5255 18.6501 17.0101Z" fill="#267FF5" stroke="#267FF5"/>
  <path opacity="0.4" d="M18.0799 11.6598C18.0799 12.2507 17.6009 12.7298 17.0099 12.7298C16.419 12.7298 15.9399 12.2507 15.9399 11.6598C15.9399 11.0689 16.419 10.5898 17.0099 10.5898C17.6009 10.5898 18.0799 11.0689 18.0799 11.6598Z" fill="#267FF5" stroke="#267FF5"/>
</svg>