<svg xmlns="http://www.w3.org/2000/svg" width="24" height="24" viewBox="0 0 24 24" fill="none">
  <g clip-path="url(#clip0_1464_27795)">
    <path opacity="0.3" d="M11.735 13.424L12 13.5896L12.265 13.424L19.5 8.90212V17.5H4.5V8.90212L11.735 13.424ZM5.74636 6.5H18.2536L12 10.4007L5.74636 6.5Z" fill="#267FF5" stroke="#267FF5"/>
    <path d="M20.2646 6.42424L21.4644 5.67589C21.4877 5.78037 21.5 5.88884 21.5 6V18C21.5 18.8239 20.8239 19.5 20 19.5H4C3.17614 19.5 2.5 18.8239 2.5 18V6C2.5 5.88884 2.51231 5.78037 2.53563 5.67589L3.73538 6.42424L11.7354 11.4142L12 11.5793L12.2646 11.4142L20.2646 6.42424ZM21.4135 5.5H20H4H2.58648C2.79395 4.91938 3.35116 4.5 4 4.5H20C20.6488 4.5 21.2061 4.91938 21.4135 5.5ZM4.265 7.576L3.5 7.09788V8V18V18.5H4H20H20.5V18V8V7.09788L19.735 7.576L12 12.4104L4.265 7.576Z" fill="#267FF5" stroke="#267FF5"/>
  </g>
  <defs>
    <clipPath id="clip0_1464_27795">
      <rect width="24" height="24" fill="white"/>
    </clipPath>
  </defs>
</svg>