<svg xmlns="http://www.w3.org/2000/svg" width="24" height="25" viewBox="0 0 24 25" fill="none">
  <path d="M17.6937 4.76272L17.6936 4.76274L17.6978 4.76577C17.9351 4.93661 17.968 5.30013 17.7405 5.52241L17.7403 5.52262L16.3518 6.88122C16.3516 6.88141 16.3514 6.88161 16.3511 6.88181C16.1707 7.05639 15.9148 7.07365 15.7346 6.9489C14.9684 6.41772 13.8989 5.93731 12.5 5.87648V3.00428C14.5234 3.0623 16.2591 3.70712 17.6937 4.76272Z" fill="#267FF5" stroke="#267FF5"/>
  <path d="M18.4803 19.7128L18.48 19.7131C16.9917 21.0932 14.9527 21.9326 12.5 21.9958V19.1244C13.9437 19.0728 15.0779 18.6493 15.9551 18.0405L15.9565 18.0395C17.4158 17.0191 18.0815 15.4944 18.2065 14.4491L18.2733 13.8897H17.71H13.2C12.9261 13.8897 12.7 13.6636 12.7 13.3897V11.6797C12.7 11.4058 12.9261 11.1797 13.2 11.1797H20.75C21.0089 11.1797 21.2181 11.3706 21.2424 11.6185L21.2423 11.6185L21.2432 11.6265C21.2808 11.9549 21.3 12.3057 21.3 12.7197C21.3 15.6473 20.2564 18.0683 18.4803 19.7128Z" fill="#267FF5" stroke="#267FF5"/>
  <path opacity="0.4" d="M6.02561 10.3617L6.02559 10.3617L6.0241 10.3663C5.80991 11.0303 5.67995 11.7521 5.67995 12.4998C5.67995 13.2486 5.81032 13.9619 6.03551 14.6376C6.82893 17.0276 8.94521 18.8118 11.5 19.086V21.967C8.09113 21.7227 5.18472 19.6722 3.72689 16.7656L3.58854 16.4898H3.58425C3.01948 15.2673 2.69995 13.9199 2.69995 12.4998C2.69995 10.9719 3.0698 9.52821 3.717 8.2337C5.17495 5.32706 8.08174 3.27627 11.5 3.03245V5.9127C9.14892 6.16079 7.18297 7.68436 6.25305 9.7767C6.16676 9.97084 6.09088 10.1658 6.02561 10.3617Z" fill="#267FF5" stroke="#267FF5"/>
</svg>