<svg xmlns="http://www.w3.org/2000/svg" width="17" height="17" viewBox="0 0 17 17" fill="none">
  <path d="M9.93341 9.71215C9.74771 9.91144 9.52377 10.0713 9.27496 10.1821C9.02614 10.293 8.75754 10.3526 8.48519 10.3574C8.21283 10.3622 7.9423 10.3121 7.68973 10.2101C7.43715 10.1081 7.20772 9.95625 7.0151 9.76364C6.82249 9.57102 6.67064 9.34158 6.56862 9.08901C6.4666 8.83644 6.4165 8.56591 6.42131 8.29355C6.42611 8.0212 6.48573 7.7526 6.59659 7.50378C6.70746 7.25497 6.8673 7.03103 7.06659 6.84533M12.5163 12.295C11.3605 13.176 9.95309 13.6641 8.5 13.6878C3.76705 13.6878 1.0625 8.27874 1.0625 8.27874C1.90354 6.71138 3.07004 5.34201 4.48375 4.26249L12.5163 12.295ZM7.08011 3.03192C7.54552 2.92298 8.02202 2.86852 8.5 2.86965C13.233 2.86965 15.9375 8.27874 15.9375 8.27874C15.5271 9.04656 15.0376 9.76944 14.477 10.4356L7.08011 3.03192Z" stroke="#777E90" stroke-width="1.5" stroke-linecap="round" stroke-linejoin="round"/>
  <path d="M1.0625 0.84082L15.9375 15.7158" stroke="#777E90" stroke-width="1.5" stroke-linecap="round" stroke-linejoin="round"/>
</svg>