<svg xmlns="http://www.w3.org/2000/svg" width="24" height="24" viewBox="0 0 24 24" fill="none">
  <path d="M20.8603 8.36985L13.9303 2.82985C12.8603 1.96985 11.1303 1.96985 10.0703 2.81985L3.14027 8.36985C2.36027 8.98985 1.86027 10.2998 2.03027 11.2798L3.36027 19.2398C3.60027 20.6598 4.96027 21.8098 6.40027 21.8098H17.6003C19.0303 21.8098 20.4003 20.6498 20.6403 19.2398L21.9703 11.2798C22.1303 10.2998 21.6303 8.98985 20.8603 8.36985ZM12.0003 15.4998C10.6203 15.4998 9.50027 14.3798 9.50027 12.9998C9.50027 11.6198 10.6203 10.4998 12.0003 10.4998C13.3803 10.4998 14.5003 11.6198 14.5003 12.9998C14.5003 14.3798 13.3803 15.4998 12.0003 15.4998Z" fill="white"/>
</svg>