<svg xmlns="http://www.w3.org/2000/svg" width="17" height="15" viewBox="0 0 17 15" fill="none">
  <path d="M14.0651 5.47079L14.0454 5.68437L14.1866 5.84582L15.6276 7.4935L14.1861 9.14776L14.0455 9.30907L14.0651 9.52213L14.2657 11.6995L12.136 12.1833L11.9262 12.2309L11.8166 12.416L10.7017 14.2977L8.69696 13.4368L8.499 13.3518L8.30125 13.4373L6.29763 14.3036L5.18311 12.4166L5.07351 12.231L4.86334 12.1833L2.7335 11.6995L2.93424 9.51492L2.95386 9.30141L2.81271 9.14001L1.37224 7.49292L2.81271 5.84582L2.95386 5.68443L2.93424 5.47091L2.73361 3.28753L4.86206 2.80995L5.07271 2.76269L5.18276 2.57695L6.29763 0.695233L8.30239 1.5561L8.49967 1.64082L8.69696 1.5561L10.7017 0.695232L11.8166 2.57695L11.9262 2.76201L12.136 2.80966L14.2657 3.29343L14.0651 5.47079ZM13.6513 9.55779L13.6512 9.5569L13.6145 9.16675L13.8716 8.86833L13.8722 8.86761L14.7783 7.81999L15.0632 7.49052L14.7759 7.16312L13.8637 6.1236L13.6074 5.82617L13.6441 5.43602L13.6442 5.43513L13.7717 4.05388L13.812 3.61708L13.3842 3.52025L12.0384 3.21567L12.0383 3.21565L11.6529 3.12848L11.4521 2.79074L11.4511 2.78905L10.7509 1.60074L10.5267 1.22041L10.1216 1.39568L8.8616 1.94073L8.86074 1.9411L8.49844 2.09702L8.13005 1.94046L6.87069 1.39568L6.46553 1.22041L6.24141 1.60074L5.54116 2.78905L5.54015 2.79074L5.33933 3.12848L4.95395 3.21565L4.95389 3.21567L3.60806 3.52025L3.18002 3.61712L3.22056 4.05411L3.34806 5.42828L3.34803 5.42828L3.34864 5.43412L3.38991 5.82851L3.13514 6.12422L2.22234 7.17147L1.93501 7.50112L2.22344 7.82979L3.13567 8.86931L3.39193 9.16675L3.35521 9.5569L3.3551 9.55802L3.2276 10.9464L3.18751 11.383L3.61514 11.4798L4.96097 11.7843L4.96103 11.7843L5.34641 11.8715L5.5479 12.2104L5.54824 12.211L6.24915 13.3933L6.47368 13.772L6.87777 13.5972L8.13775 13.0522L8.13861 13.0518L8.50091 12.8959L8.86783 13.0518L8.87077 13.0531L10.1287 13.5972L10.5338 13.7725L10.7579 13.3922L11.4582 12.2039L11.4592 12.2022L11.66 11.8644L12.0454 11.7773L12.0455 11.7773L13.3913 11.4727L13.8191 11.3758L13.7788 10.939L13.6513 9.55779Z" fill="#267FF5" stroke="#267FF5"/>
  <path d="M7.14674 8.73971L5.50341 7.08929L4.45508 8.14471L7.14674 10.8435L12.3459 5.63012L11.2976 4.57471L7.14674 8.73971Z" fill="#267FF5"/>
</svg>