<svg xmlns="http://www.w3.org/2000/svg" width="20" height="20" viewBox="0 0 20 20" fill="none">
  <path d="M9.99992 10.8338C9.74621 10.8308 9.49768 10.9056 9.28779 11.0482C9.07789 11.1907 8.91671 11.3942 8.82593 11.6311C8.73515 11.868 8.71914 12.1271 8.78004 12.3734C8.84095 12.6197 8.97585 12.8414 9.16658 13.0088V14.1671C9.16658 14.3881 9.25438 14.6001 9.41066 14.7563C9.56694 14.9126 9.7789 15.0004 9.99992 15.0004C10.2209 15.0004 10.4329 14.9126 10.5892 14.7563C10.7455 14.6001 10.8333 14.3881 10.8333 14.1671V13.0088C11.024 12.8414 11.1589 12.6197 11.2198 12.3734C11.2807 12.1271 11.2647 11.868 11.1739 11.6311C11.0831 11.3942 10.9219 11.1907 10.712 11.0482C10.5022 10.9056 10.2536 10.8308 9.99992 10.8338ZM14.1666 7.50042H7.49992V5.83376C7.4987 5.33891 7.64437 4.85484 7.91847 4.44284C8.19257 4.03085 8.58277 3.70946 9.03965 3.51939C9.49654 3.32932 9.99955 3.27911 10.485 3.37513C10.9704 3.47114 11.4165 3.70906 11.7666 4.05875C12.0799 4.37881 12.304 4.77528 12.4166 5.20876C12.4439 5.31491 12.4919 5.41463 12.5578 5.50223C12.6237 5.58983 12.7062 5.6636 12.8007 5.71931C12.8951 5.77503 12.9995 5.8116 13.1081 5.82695C13.2166 5.8423 13.3271 5.83611 13.4333 5.80876C13.5394 5.7814 13.6391 5.7334 13.7267 5.6675C13.8143 5.6016 13.8881 5.51909 13.9438 5.42469C13.9995 5.33028 14.0361 5.22582 14.0514 5.11728C14.0668 5.00874 14.0606 4.89824 14.0333 4.79209C13.8434 4.07109 13.4669 3.41287 12.9416 2.88375C12.3584 2.30239 11.616 1.90687 10.8082 1.74712C10.0004 1.58738 9.16336 1.67058 8.4028 1.98622C7.64224 2.30186 6.99225 2.83578 6.53492 3.52057C6.07759 4.20535 5.83343 5.0103 5.83325 5.83376V7.50042C5.17021 7.50042 4.53433 7.76381 4.06549 8.23265C3.59664 8.7015 3.33325 9.33738 3.33325 10.0004V15.8338C3.33325 16.4968 3.59664 17.1327 4.06549 17.6015C4.53433 18.0704 5.17021 18.3338 5.83325 18.3338H14.1666C14.8296 18.3338 15.4655 18.0704 15.9344 17.6015C16.4032 17.1327 16.6666 16.4968 16.6666 15.8338V10.0004C16.6666 9.33738 16.4032 8.7015 15.9344 8.23265C15.4655 7.76381 14.8296 7.50042 14.1666 7.50042ZM14.9999 15.8338C14.9999 16.0548 14.9121 16.2667 14.7558 16.423C14.5996 16.5793 14.3876 16.6671 14.1666 16.6671H5.83325C5.61224 16.6671 5.40028 16.5793 5.244 16.423C5.08772 16.2667 4.99992 16.0548 4.99992 15.8338V10.0004C4.99992 9.77941 5.08772 9.56745 5.244 9.41117C5.40028 9.25489 5.61224 9.16709 5.83325 9.16709H14.1666C14.3876 9.16709 14.5996 9.25489 14.7558 9.41117C14.9121 9.56745 14.9999 9.77941 14.9999 10.0004V15.8338Z" fill="#777E90"/>
</svg>