<svg xmlns="http://www.w3.org/2000/svg" width="24" height="24" viewBox="0 0 24 24" fill="none">
  <path opacity="0.4" d="M10.3999 2.86C10.3999 2.65614 10.556 2.5 10.7599 2.5C13.58 2.5 15.9487 3.48593 17.6112 5.14968C19.2738 6.81344 20.2599 9.18467 20.2599 12.01C20.2599 14.8356 19.2761 17.2042 17.6151 18.8652C15.9541 20.5262 13.5855 21.51 10.7599 21.51C10.5598 21.51 10.3999 21.3477 10.3999 21.15V2.86Z" fill="#267FF5" stroke="#267FF5"/>
  <path d="M15.5461 11.8931L15.546 11.8931L15.5527 11.8997C15.6494 11.9931 15.6494 12.1372 15.5527 12.2307L15.5527 12.2306L15.5461 12.2372L12.7067 15.0866C12.7066 15.0867 12.7065 15.0868 12.7063 15.0869C12.6551 15.138 12.5946 15.1602 12.5302 15.1602C12.4657 15.1602 12.4051 15.1379 12.3538 15.0866C12.2591 14.9919 12.2591 14.8284 12.3538 14.7337L12.3549 14.7326L13.9149 13.1626L14.7619 12.3102H13.5602H3.99023C3.85638 12.3102 3.74023 12.194 3.74023 12.0602C3.74023 11.9263 3.85638 11.8102 3.99023 11.8102H13.5602H14.7673L13.9138 10.9566L12.3538 9.3966C12.2591 9.30187 12.2591 9.13845 12.3538 9.04371C12.4485 8.94904 12.6117 8.94897 12.7065 9.04349C12.7065 9.04356 12.7066 9.04364 12.7067 9.04371L15.5461 11.8931Z" fill="#267FF5" stroke="#267FF5"/>
</svg>