<svg xmlns="http://www.w3.org/2000/svg" width="17" height="17" viewBox="0 0 17 17" fill="none">
  <path d="M15.5837 15.5835H1.41699C1.12658 15.5835 0.885742 15.3427 0.885742 15.0522C0.885742 14.7618 1.12658 14.521 1.41699 14.521H15.5837C15.8741 14.521 16.1149 14.7618 16.1149 15.0522C16.1149 15.3427 15.8741 15.5835 15.5837 15.5835Z" fill="#777E90"/>
  <path d="M6.90625 2.83317V15.5832H10.0938V2.83317C10.0938 2.054 9.775 1.4165 8.81875 1.4165H8.18125C7.225 1.4165 6.90625 2.054 6.90625 2.83317Z" fill="#777E90"/>
  <path opacity="0.4" d="M2.125 7.08317V15.5832H4.95833V7.08317C4.95833 6.304 4.675 5.6665 3.825 5.6665H3.25833C2.40833 5.6665 2.125 6.304 2.125 7.08317Z" fill="#777E90"/>
  <path opacity="0.4" d="M12.042 10.6252V15.5835H14.8753V10.6252C14.8753 9.846 14.592 9.2085 13.742 9.2085H13.1753C12.3253 9.2085 12.042 9.846 12.042 10.6252Z" fill="#777E90"/>
</svg>