<svg xmlns="http://www.w3.org/2000/svg" width="24" height="22" viewBox="0 0 24 22" fill="none">
  <g clip-path="url(#clip0_1464_28402)">
    <path fill-rule="evenodd" clip-rule="evenodd" d="M6.875 19.6149L9.99534 20.4428V19.3602L10.2501 19.1055H12.0331V20.3791V21.2706H10.1227L7.76651 20.2517L6.875 19.6149Z" fill="#CDBDB2"/>
    <path fill-rule="evenodd" clip-rule="evenodd" d="M17.0664 19.6149L14.0098 20.4428V19.3602L13.7551 19.1055H11.9721V20.3791V21.2706H13.8824L16.2385 20.2517L17.0664 19.6149Z" fill="#CDBDB2"/>
    <path fill-rule="evenodd" clip-rule="evenodd" d="M10.2508 17.2579L9.99609 19.3593L10.3144 19.1045H13.6258L14.0078 19.3593L13.7531 17.2579L13.2437 16.9395L10.6965 17.0032L10.2508 17.2579Z" fill="#393939"/>
    <path fill-rule="evenodd" clip-rule="evenodd" d="M8.53125 3.05664L10.0596 6.62268L10.7601 17.0025H13.2435L14.0077 6.62268L15.4086 3.05664H8.53125Z" fill="#F89C35"/>
    <path fill-rule="evenodd" clip-rule="evenodd" d="M1.84552 10.8908L0.0625 16.0488L4.52005 15.7941H7.38556V13.5654L7.2582 8.98047L6.62141 9.4899L1.84552 10.8908Z" fill="#F89D35"/>
    <path fill-rule="evenodd" clip-rule="evenodd" d="M5.21875 11.4629L10.4404 11.5902L9.86739 14.2648L7.38384 13.628L5.21875 11.4629Z" fill="#D87C30"/>
    <path fill-rule="evenodd" clip-rule="evenodd" d="M5.21875 11.5273L7.38384 13.5651V15.6028L5.21875 11.5273Z" fill="#EA8D3A"/>
    <path fill-rule="evenodd" clip-rule="evenodd" d="M7.38672 13.6289L9.93389 14.2657L10.7618 17.004L10.1886 17.3223L7.38672 15.6666V13.6289Z" fill="#F89D35"/>
    <path fill-rule="evenodd" clip-rule="evenodd" d="M7.38443 15.666L6.875 19.6141L10.2501 17.2581L7.38443 15.666Z" fill="#EB8F35"/>
    <path fill-rule="evenodd" clip-rule="evenodd" d="M10.4415 11.5898L10.7599 17.0026L9.80469 14.2326L10.4415 11.5898Z" fill="#EA8E3A"/>
    <path fill-rule="evenodd" clip-rule="evenodd" d="M4.45703 15.7298L7.38628 15.666L6.87684 19.6141L4.45703 15.7298Z" fill="#D87C30"/>
    <path fill-rule="evenodd" clip-rule="evenodd" d="M1.46344 21.3342L6.87612 19.6148L4.45631 15.7305L0.0625 16.0488L1.46344 21.3342Z" fill="#EB8F35"/>
    <path fill-rule="evenodd" clip-rule="evenodd" d="M10.0584 6.62305L7.32022 8.9155L5.21875 11.4627L10.4404 11.6538L10.0584 6.62305Z" fill="#E8821E"/>
    <path fill-rule="evenodd" clip-rule="evenodd" d="M6.875 19.6139L10.2501 17.2578L9.99534 19.2955V20.4418L7.70289 19.996L6.875 19.6139Z" fill="#DFCEC3"/>
    <path fill-rule="evenodd" clip-rule="evenodd" d="M17.0664 19.6139L13.7551 17.2578L14.0098 19.2955V20.4418L16.3023 19.996L17.0664 19.6139Z" fill="#DFCEC3"/>
    <path fill-rule="evenodd" clip-rule="evenodd" d="M9.04166 12.7363L9.74219 14.201L7.25864 13.5642L9.04166 12.7363Z" fill="#393939"/>
    <path fill-rule="evenodd" clip-rule="evenodd" d="M1.39844 0.0644531L10.0588 6.62336L8.59425 3.05732L1.39844 0.0644531Z" fill="#E88F35"/>
    <path fill-rule="evenodd" clip-rule="evenodd" d="M1.40013 0.0644531L0.253906 3.56681L0.890699 7.38757L0.444944 7.64228L1.08174 8.2154L0.572302 8.66115L1.27277 9.29794L0.827019 9.68002L1.84589 10.9536L6.62183 9.48898C8.95674 7.62106 10.103 6.66587 10.0605 6.62342C10.0181 6.58096 7.13126 4.39464 1.40013 0.0644531Z" fill="#8E5A30"/>
    <path fill-rule="evenodd" clip-rule="evenodd" d="M22.0959 10.8908L23.8789 16.0488L19.4214 15.7941H16.5559V13.5654L16.6832 8.98047L17.32 9.4899L22.0959 10.8908Z" fill="#F89D35"/>
    <path fill-rule="evenodd" clip-rule="evenodd" d="M18.7227 11.4629L13.501 11.5902L14.074 14.2648L16.5576 13.628L18.7227 11.4629Z" fill="#D87C30"/>
    <path fill-rule="evenodd" clip-rule="evenodd" d="M18.7227 11.5273L16.5576 13.5651V15.6028L18.7227 11.5273Z" fill="#EA8D3A"/>
    <path fill-rule="evenodd" clip-rule="evenodd" d="M16.5547 13.6289L14.0075 14.2657L13.1796 17.004L13.7528 17.3223L16.5547 15.6666V13.6289Z" fill="#F89D35"/>
    <path fill-rule="evenodd" clip-rule="evenodd" d="M16.557 15.666L17.0664 19.6141L13.7551 17.3217L16.557 15.666Z" fill="#EB8F35"/>
    <path fill-rule="evenodd" clip-rule="evenodd" d="M13.4999 11.5898L13.1815 17.0026L14.1367 14.2326L13.4999 11.5898Z" fill="#EA8E3A"/>
    <path fill-rule="evenodd" clip-rule="evenodd" d="M19.4844 15.7298L16.5551 15.666L17.0646 19.6141L19.4844 15.7298Z" fill="#D87C30"/>
    <path fill-rule="evenodd" clip-rule="evenodd" d="M22.478 21.3342L17.0653 19.6148L19.4851 15.7305L23.8789 16.0488L22.478 21.3342Z" fill="#EB8F35"/>
    <path fill-rule="evenodd" clip-rule="evenodd" d="M13.883 6.62305L16.6212 8.9155L18.7227 11.4627L13.501 11.6538L13.883 6.62305Z" fill="#E8821E"/>
    <path fill-rule="evenodd" clip-rule="evenodd" d="M14.8997 12.7363L14.1992 14.201L16.6828 13.5642L14.8997 12.7363Z" fill="#393939"/>
    <path fill-rule="evenodd" clip-rule="evenodd" d="M22.543 0.0644531L13.8826 6.62336L15.3472 3.05732L22.543 0.0644531Z" fill="#E88F35"/>
    <path fill-rule="evenodd" clip-rule="evenodd" d="M22.5413 0.0644531L23.6875 3.56681L23.0507 7.38757L23.4965 7.64228L22.8597 8.2154L23.3691 8.66115L22.6686 9.29794L23.1144 9.68002L22.0955 10.9536L17.3196 9.48898C14.9847 7.62106 13.8384 6.66587 13.8809 6.62342C13.9233 6.58096 16.8101 4.39464 22.5413 0.0644531Z" fill="#8E5A30"/>
  </g>
  <defs>
    <clipPath id="clip0_1464_28402">
      <rect width="24" height="21.3962" fill="white"/>
    </clipPath>
  </defs>
</svg>