<svg xmlns="http://www.w3.org/2000/svg" width="24" height="24" viewBox="0 0 24 24" fill="none">
  <path opacity="0.4" d="M20.4099 11.1187V11.1198C20.4099 15.7766 17.0182 20.165 12.3777 21.4476C12.1342 21.5139 11.8655 21.5139 11.622 21.4476C6.98145 20.165 3.58984 15.7766 3.58984 11.1198V6.72982C3.58984 6.43928 3.70286 6.09723 3.91105 5.78752C4.11917 5.47795 4.39355 5.24357 4.66659 5.13364L4.66659 5.13365L4.66927 5.13256L10.2387 2.85277C10.2388 2.85275 10.2388 2.85272 10.2389 2.85269C11.3677 2.3922 12.642 2.3922 13.7708 2.8527C13.7708 2.85273 13.7709 2.85275 13.771 2.85277L19.3404 5.13256L19.341 5.13279C19.6102 5.2426 19.8856 5.47767 20.0955 5.78848C20.3055 6.09927 20.4198 6.44085 20.4199 6.72953C20.4199 6.72963 20.4199 6.72972 20.4199 6.72982L20.4099 11.1187Z" fill="#267FF5" stroke="#267FF5"/>
  <path d="M11.75 12.87V12.5039L11.401 12.3933C10.5873 12.1355 10 11.3902 10 10.5C10 9.39614 10.8961 8.5 12 8.5C13.1039 8.5 14 9.39614 14 10.5C14 11.3902 13.4127 12.1355 12.599 12.3933L12.25 12.5039V12.87V15.5C12.25 15.6339 12.1339 15.75 12 15.75C11.8661 15.75 11.75 15.6339 11.75 15.5V12.87Z" fill="#267FF5" stroke="#267FF5"/>
</svg>