<svg xmlns="http://www.w3.org/2000/svg" width="15" height="16" viewBox="0 0 15 16" fill="none">
  <path opacity="0.4" d="M7.5 15.5C11.6421 15.5 15 12.1421 15 8C15 3.85786 11.6421 0.5 7.5 0.5C3.35786 0.5 0 3.85786 0 8C0 12.1421 3.35786 15.5 7.5 15.5Z" fill="#959EAE"/>
  <path d="M8.29844 7.99953L10.0234 6.27453C10.2409 6.05703 10.2409 5.69703 10.0234 5.47953C9.80594 5.26203 9.44594 5.26203 9.22844 5.47953L7.50344 7.20453L5.77844 5.47953C5.56094 5.26203 5.20094 5.26203 4.98344 5.47953C4.76594 5.69703 4.76594 6.05703 4.98344 6.27453L6.70844 7.99953L4.98344 9.72453C4.76594 9.94203 4.76594 10.302 4.98344 10.5195C5.09594 10.632 5.23844 10.6845 5.38094 10.6845C5.52344 10.6845 5.66594 10.632 5.77844 10.5195L7.50344 8.79453L9.22844 10.5195C9.34094 10.632 9.48344 10.6845 9.62594 10.6845C9.76844 10.6845 9.91094 10.632 10.0234 10.5195C10.2409 10.302 10.2409 9.94203 10.0234 9.72453L8.29844 7.99953Z" fill="#1C1C24"/>
</svg>