<svg xmlns="http://www.w3.org/2000/svg" width="17" height="17" viewBox="0 0 17 17" fill="none">
  <g clip-path="url(#clip0_1555_731)">
    <path d="M12.2497 11.3335V11.5406L12.3961 11.687L13.6663 12.9573V12.9585H3.33301V12.9573L4.60323 11.687L4.74967 11.5406V11.3335V7.79183C4.74967 5.78546 5.80282 4.21769 7.55283 3.8016L7.93717 3.71022V3.31516V2.8335C7.93717 2.52172 8.1879 2.271 8.49967 2.271C8.81145 2.271 9.06217 2.52172 9.06217 2.8335V3.31516V3.71054L9.4469 3.80169C11.2025 4.21766 12.2497 5.79113 12.2497 7.79183V11.3335ZM11.333 12.5418H11.833V12.0418V7.79183C11.833 6.8154 11.5358 5.89835 10.9596 5.21659C10.3767 4.52677 9.52859 4.10433 8.49967 4.10433C7.47076 4.10433 6.62267 4.52677 6.03971 5.21659C5.46356 5.89835 5.16634 6.8154 5.16634 7.79183V12.0418V12.5418H5.66634H11.333ZM9.26634 14.6668C9.10196 14.917 8.81881 15.0835 8.49967 15.0835C8.18054 15.0835 7.89739 14.917 7.73301 14.6668H9.26634Z" fill="#323232" stroke="white"/>
  </g>
  <defs>
    <clipPath id="clip0_1555_731">
      <rect width="17" height="17" fill="white"/>
    </clipPath>
  </defs>
</svg>
