<svg xmlns="http://www.w3.org/2000/svg" width="24" height="25" viewBox="0 0 24 25" fill="none">
  <path d="M15 22C14.8661 22 14.75 21.8839 14.75 21.75V3.25C14.75 3.11614 14.8661 3 15 3C15.1339 3 15.25 3.11614 15.25 3.25V21.75C15.25 21.8839 15.1339 22 15 22Z" fill="#267FF5" stroke="#267FF5"/>
  <path opacity="0.4" d="M12 5V20H6.5C4.56614 20 3 18.4339 3 16.5V8.5C3 6.56614 4.56614 5 6.5 5H12Z" fill="#267FF5" stroke="#267FF5"/>
  <path opacity="0.4" d="M18 20H15.5V5H18C19.9339 5 21.5 6.56614 21.5 8.5V16.5C21.5 18.4339 19.9339 20 18 20Z" fill="#267FF5" stroke="#267FF5"/>
  <path d="M5.52811 12.0542L5.56182 12.043L5.59361 12.0271C5.61357 12.0171 5.62613 12.0141 5.6322 12.0131L5.64155 12.0115L5.65083 12.0096C5.8208 11.9746 5.98854 12.0287 6.10172 12.1388C6.19677 12.2417 6.25 12.3783 6.25 12.4999C6.25 12.5541 6.23715 12.6187 6.20846 12.6876C6.18399 12.7463 6.15042 12.8021 6.10563 12.8555C6.05216 12.9003 5.99643 12.9339 5.93769 12.9584C5.86884 12.9871 5.80415 12.9999 5.75 12.9999C5.69585 12.9999 5.63116 12.9871 5.56231 12.9584C5.50355 12.9339 5.44781 12.9003 5.39433 12.8555C5.35165 12.8047 5.31338 12.7458 5.27632 12.6742C5.26027 12.6301 5.25 12.5726 5.25 12.4999C5.25 12.3847 5.29777 12.256 5.38361 12.1553L5.48207 12.0766C5.50264 12.0641 5.51798 12.0576 5.52811 12.0542Z" fill="#267FF5" stroke="#267FF5"/>
  <path d="M8.79154 12.3125L8.79171 12.3126L8.79667 12.2997C8.81741 12.2458 8.84597 12.1993 8.90174 12.1358C9.07463 11.9735 9.41692 11.9679 9.60415 12.1417C9.69768 12.2443 9.75 12.3796 9.75 12.5002C9.75 12.5543 9.73715 12.619 9.70846 12.6879C9.68399 12.7466 9.65042 12.8024 9.60563 12.8558C9.55216 12.9006 9.49643 12.9342 9.43769 12.9587C9.36884 12.9873 9.30415 13.0002 9.25 13.0002C9.19585 13.0002 9.13116 12.9873 9.06231 12.9587C9.00004 12.9327 8.94115 12.8965 8.88476 12.8476C8.79757 12.7561 8.75 12.638 8.75 12.5002C8.75 12.446 8.76285 12.3814 8.79154 12.3125Z" fill="#267FF5" stroke="#267FF5"/>
</svg>