<svg xmlns="http://www.w3.org/2000/svg" width="24" height="24" viewBox="0 0 24 24" fill="none">
  <g clip-path="url(#clip0_1464_27814)">
    <path opacity="0.3" d="M18.5098 17.9258V18.4186C17.7016 18.3385 16.9114 18.189 16.1494 17.9775L16.551 17.5759C17.1951 17.7365 17.8494 17.8531 18.5098 17.9258ZM6.01724 7.85544C5.80935 7.09174 5.65944 6.30579 5.57485 5.5H6.08043C6.1481 6.16305 6.26373 6.81415 6.42333 7.44935L6.01724 7.85544Z" fill="#267FF5" stroke="#267FF5"/>
    <path d="M16.2443 15.4042L16.2586 15.4099L16.2732 15.4148C17.4436 15.8014 18.7066 16.01 20 16.01C20.2739 16.01 20.5 16.2361 20.5 16.51V20C20.5 20.2739 20.2739 20.5 20 20.5C10.8861 20.5 3.5 13.1139 3.5 4C3.5 3.72614 3.72614 3.5 4 3.5H7.5C7.77386 3.5 8 3.72614 8 4C8 5.30213 8.20815 6.55368 8.5939 7.7228C8.6492 7.90217 8.6082 8.09469 8.46645 8.23645L6.26645 10.4364L6.00972 10.6932L6.17437 11.0168C7.66275 13.9418 10.0595 16.3276 12.982 17.825L13.3061 17.991L13.5636 17.7336L15.7584 15.5387C15.8677 15.4366 15.994 15.39 16.12 15.39C16.1541 15.39 16.1818 15.3918 16.2043 15.395C16.2268 15.3982 16.2392 15.4022 16.2443 15.4042ZM16.5359 16.5388L16.2551 16.4595L16.0479 16.665L14.8479 17.855L14.2692 18.4289L15.0431 18.6847C16.291 19.0973 17.6022 19.3659 18.966 19.4588L19.5 19.4953V18.96V17.47V17.0029L19.034 16.9712C18.1882 16.9135 17.3523 16.7694 16.5359 16.5388ZM5.31645 8.96046L5.57584 9.726L6.14502 9.15208L7.34502 7.94208L7.55195 7.73342L7.47032 7.45111C7.24072 6.65707 7.0961 5.8208 7.02846 4.9608L6.99222 4.5H6.53H5.03H4.49475L4.53116 5.03401C4.62415 6.39784 4.89284 7.71031 5.31645 8.96046Z" fill="#267FF5" stroke="#267FF5"/>
  </g>
  <defs>
    <clipPath id="clip0_1464_27814">
      <rect width="24" height="24" fill="white"/>
    </clipPath>
  </defs>
</svg>