<svg xmlns="http://www.w3.org/2000/svg" width="17" height="17" viewBox="0 0 17 17" fill="none">
  <g clip-path="url(#clip0_1555_4376)">
    <path opacity="0.3" d="M2.83301 5.6665H14.1663V13.4582H2.83301V5.6665Z" fill="white"/>
    <path d="M14.167 4.24984H11.3337V2.83317C11.3337 2.04692 10.7032 1.4165 9.91699 1.4165H7.08366C6.29741 1.4165 5.66699 2.04692 5.66699 2.83317V4.24984H2.83366C2.04741 4.24984 1.42408 4.88025 1.42408 5.6665L1.41699 13.4582C1.41699 14.2444 2.04741 14.8748 2.83366 14.8748H14.167C14.9532 14.8748 15.5837 14.2444 15.5837 13.4582V5.6665C15.5837 4.88025 14.9532 4.24984 14.167 4.24984ZM7.08366 2.83317H9.91699V4.24984H7.08366V2.83317ZM14.167 13.4582H2.83366V5.6665H14.167V13.4582Z" fill="white"/>
  </g>
  <defs>
    <clipPath id="clip0_1555_4376">
      <rect width="17" height="17" fill="white"/>
    </clipPath>
  </defs>
</svg>