<svg xmlns="http://www.w3.org/2000/svg" width="17" height="17" viewBox="0 0 17 17" fill="none">
  <path d="M2.125 6.45296V10.54C2.125 12.0417 2.125 12.0417 3.54167 12.998L7.4375 15.2505C8.02542 15.5905 8.98167 15.5905 9.5625 15.2505L13.4583 12.998C14.875 12.0417 14.875 12.0417 14.875 10.5471V6.45296C14.875 4.95838 14.875 4.95838 13.4583 4.00213L9.5625 1.74963C8.98167 1.40963 8.02542 1.40963 7.4375 1.74963L3.54167 4.00213C2.125 4.95838 2.125 4.95838 2.125 6.45296Z" stroke="#267FF5" stroke-width="1.5" stroke-linecap="round" stroke-linejoin="round"/>
  <path d="M8.5 10.625C9.6736 10.625 10.625 9.6736 10.625 8.5C10.625 7.32639 9.6736 6.375 8.5 6.375C7.32639 6.375 6.375 7.32639 6.375 8.5C6.375 9.6736 7.32639 10.625 8.5 10.625Z" stroke="#267FF5" stroke-width="1.5" stroke-linecap="round" stroke-linejoin="round"/>
</svg>