<svg xmlns="http://www.w3.org/2000/svg" width="20" height="20" viewBox="0 0 20 20" fill="none">
  <path d="M9.99967 19.1663L2.08301 14.583V5.41634L9.99967 0.833008L17.9163 5.41634V14.583L9.99967 19.1663ZM9.99967 2.75967L3.74967 6.37717V13.6222L9.99967 17.2405L16.2497 13.6222V6.37717L9.99967 2.75884V2.75967ZM9.99967 13.333C9.11591 13.3305 8.26879 12.9796 7.64217 12.3563C6.68904 11.4029 6.40405 9.96924 6.92007 8.72377C7.4361 7.4783 8.65154 6.66634 9.99967 6.66634C10.8832 6.66871 11.7301 7.01969 12.3563 7.64301C13.6576 8.94467 13.6576 11.0547 12.3563 12.3563C11.73 12.9794 10.8832 13.3304 9.99967 13.333ZM9.99967 8.333C9.20454 8.33284 8.52002 8.89437 8.36474 9.6742C8.20946 10.454 8.62668 11.2349 9.36123 11.5394C10.0958 11.8438 10.9431 11.5869 11.3849 10.9259C11.8268 10.2648 11.7402 9.38367 11.178 8.82134C10.8661 8.50782 10.4419 8.332 9.99967 8.333Z" fill="white"/>
</svg>