<svg xmlns="http://www.w3.org/2000/svg" width="15" height="15" viewBox="0 0 15 15" fill="none">
  <path opacity="0.4" d="M6.87493 4.6875V10.3125C6.87493 10.6562 6.59368 10.9375 6.24993 10.9375H4.68743C3.73743 10.9375 2.88118 10.55 2.25618 9.93125C1.66868 9.3375 1.28743 8.53125 1.24993 7.6375C1.17493 5.675 2.88743 4.0625 4.85618 4.0625H6.24993C6.59368 4.0625 6.87493 4.34375 6.87493 4.6875Z" fill="#267FF5"/>
  <path opacity="0.4" d="M13.7501 7.3625C13.8313 9.33125 12.1188 10.9375 10.1501 10.9375H8.75635C8.4126 10.9375 8.13135 10.6562 8.13135 10.3125V4.6875C8.13135 4.34375 8.4126 4.0625 8.75635 4.0625H10.3188C11.2688 4.0625 12.1251 4.45 12.7501 5.06875C13.3313 5.6625 13.7126 6.46875 13.7501 7.3625Z" fill="#267FF5"/>
  <path d="M10 7.96875H5C4.74375 7.96875 4.53125 7.75625 4.53125 7.5C4.53125 7.24375 4.74375 7.03125 5 7.03125H10C10.2562 7.03125 10.4688 7.24375 10.4688 7.5C10.4688 7.75625 10.2562 7.96875 10 7.96875Z" fill="#267FF5"/>
</svg>