<svg xmlns="http://www.w3.org/2000/svg" width="15" height="15" viewBox="0 0 15 15" fill="none">
  <g clip-path="url(#clip0_1464_28482)">
    <path d="M3.75 8.125C2.375 8.125 1.25 9.25 1.25 10.625C1.25 12 2.375 13.125 3.75 13.125C5.125 13.125 6.25 12 6.25 10.625C6.25 9.25 5.125 8.125 3.75 8.125ZM7.5 1.875C6.125 1.875 5 3 5 4.375C5 5.75 6.125 6.875 7.5 6.875C8.875 6.875 10 5.75 10 4.375C10 3 8.875 1.875 7.5 1.875ZM11.25 8.125C9.875 8.125 8.75 9.25 8.75 10.625C8.75 12 9.875 13.125 11.25 13.125C12.625 13.125 13.75 12 13.75 10.625C13.75 9.25 12.625 8.125 11.25 8.125Z" fill="#267FF5"/>
  </g>
  <defs>
    <clipPath id="clip0_1464_28482">
      <rect width="15" height="15" fill="white"/>
    </clipPath>
  </defs>
</svg>