<svg xmlns="http://www.w3.org/2000/svg" width="56" height="56" viewBox="0 0 56 56" fill="none">
  <g clip-path="url(#clip0_1464_27711)">
    <path d="M48.503 21.0346C49.8238 25.202 55.9064 24.3637 56 19.9408C55.9059 15.5172 49.8231 14.6804 48.503 18.8471H44.6106C44.6252 18.4172 44.6329 17.9472 44.291 17.632L37.0108 10.3518L40.1469 4.92H48.503C49.8238 9.0874 55.9064 8.24915 56 3.82625C55.9059 -0.5973 49.8231 -1.43413 48.503 2.73262H39.5154C39.1246 2.73262 38.7635 2.94108 38.5682 3.27949L34.9463 9.55279H21.0538L17.4318 3.27938C17.2365 2.94097 16.8754 2.73251 16.4846 2.73251H7.49698C6.17618 -1.43489 0.0937342 -0.596534 0 3.82636C0.0941717 8.24992 6.17694 9.08674 7.49698 4.92H15.8531L18.9891 10.3518L11.7089 17.632C11.3672 17.9471 11.3746 18.4173 11.3893 18.8471H7.49698C6.17618 14.6797 0.0937342 15.5181 0 19.941C0.0941717 24.3645 6.17694 25.2014 7.49698 21.0346H11.4229C11.5448 25.3602 12.0516 30.3196 13.84 34.6597L13.6655 34.9618H7.49698C6.17618 30.7944 0.0937342 31.6327 0 36.0556C0.0941717 40.4792 6.17694 41.316 7.49698 37.1492H14.297C14.5304 37.1492 14.7532 37.0749 14.9364 36.9429C16.0113 38.8797 17.3418 40.5418 18.9408 41.9395L13.6656 51.0764H7.49698C6.17618 46.909 0.0937342 47.7473 0 52.1702C0.0940623 56.5937 6.17705 57.4305 7.49698 53.2639H14.297C14.6878 53.2639 15.0489 53.0554 15.2442 52.717L20.6876 43.2889C22.7395 44.6574 25.2288 45.8393 28.0001 46.4437C30.7718 45.8391 33.2599 44.6576 35.3125 43.2889L40.7558 52.717C40.9511 53.0554 41.3122 53.2639 41.703 53.2639H48.503C49.8238 57.4312 55.9064 56.5929 56 52.17C55.9059 47.7465 49.8231 46.9096 48.503 51.0764H42.3344L37.0592 41.9395C38.6582 40.5419 39.9887 38.8798 41.0636 36.9429C41.2468 37.0749 41.4696 37.1492 41.703 37.1492H48.503C49.8238 41.3166 55.9064 40.4783 56 36.0554C55.9059 31.6318 49.8231 30.795 48.503 34.9618H42.3344L42.1599 34.6597C43.9483 30.3196 44.4551 25.3601 44.577 21.0346H48.503ZM52.1719 18.3003C53.0765 18.3003 53.8125 19.0362 53.8125 19.9409C53.73 22.1144 50.6134 22.1138 50.5313 19.9409C50.5314 19.0362 51.2672 18.3003 52.1719 18.3003ZM52.1719 2.18563C53.0765 2.18563 53.8125 2.92161 53.8125 3.82625C53.73 5.99975 50.6134 5.9992 50.5313 3.82625C50.5314 2.92161 51.2672 2.18563 52.1719 2.18563ZM3.82812 5.46688C2.92348 5.46688 2.1875 4.73089 2.1875 3.82625C2.26996 1.65276 5.3866 1.6533 5.46874 3.82625C5.46874 4.731 4.73276 5.46688 3.82812 5.46688ZM3.82812 21.5815C2.92348 21.5815 2.1875 20.8455 2.1875 19.9409C2.26996 17.7674 5.3866 17.7679 5.46874 19.9409C5.46874 20.8456 4.73276 21.5815 3.82812 21.5815ZM3.82812 37.6961C2.92348 37.6961 2.1875 36.9601 2.1875 36.0555C2.26996 33.882 5.3866 33.8825 5.46874 36.0555C5.46874 36.9602 4.73276 37.6961 3.82812 37.6961ZM3.82812 53.8106C2.92348 53.8106 2.1875 53.0747 2.1875 52.1701C2.27007 49.9966 5.38649 49.9972 5.46874 52.1701C5.46874 53.0748 4.73276 53.8106 3.82812 53.8106ZM52.1719 50.5295C53.0765 50.5295 53.8125 51.2655 53.8125 52.1701C53.73 54.3435 50.6134 54.343 50.5313 52.1701C50.5314 51.2656 51.2672 50.5295 52.1719 50.5295ZM52.1719 34.4149C53.0765 34.4149 53.8125 35.1509 53.8125 36.0555C53.73 38.229 50.6134 38.2284 50.5313 36.0555C50.5314 35.1509 51.2672 34.4149 52.1719 34.4149ZM28.0001 44.216C15.4999 40.7157 13.6248 30.0111 13.577 18.8575L20.6943 11.7403H35.3057L42.423 18.8575C42.3752 30.0111 40.5002 40.7157 28.0001 44.216Z" fill="#48546D"/>
    <path d="M17.0625 25.8105C17.0625 31.8416 21.9691 36.748 28 36.748C42.4901 36.1982 42.4862 15.4207 27.9999 14.873C21.9691 14.873 17.0625 19.7796 17.0625 25.8105ZM22.7116 32.7774C23.0587 31.463 23.8883 30.3197 25.0502 29.5702C26.6793 30.8955 29.3208 30.8953 30.9497 29.5702C32.1116 30.3199 32.9412 31.4632 33.2883 32.7774C30.3595 35.1307 25.6401 35.1305 22.7116 32.7774ZM30.6563 25.7307C30.5231 29.2487 25.477 29.2495 25.3437 25.7307V23.8557C25.3437 22.3909 26.5354 21.1993 28 21.1994C29.4646 21.1994 30.6563 22.391 30.6563 23.8557C30.6563 23.8556 30.6563 25.7307 30.6563 25.7307ZM36.75 25.8105C36.75 27.7789 36.0967 29.5974 34.9955 31.0609C34.4275 29.7865 33.5155 28.6814 32.3444 27.8715C32.664 27.2256 32.8437 26.4987 32.8437 25.7307V23.8556C32.8437 21.1846 30.6707 19.0118 27.9998 19.0118C25.329 19.0118 23.1561 21.1846 23.1561 23.8556V25.7307C23.1561 26.4987 23.3358 27.2256 23.6554 27.8715C22.4843 28.6814 21.5722 29.7867 21.0043 31.0609C16.6766 25.4462 20.8526 16.9945 28 17.0605C32.8247 17.0605 36.75 20.9858 36.75 25.8105Z" fill="#48546D"/>
  </g>
  <defs>
    <clipPath id="clip0_1464_27711">
      <rect width="56" height="56" fill="white"/>
    </clipPath>
  </defs>
</svg>