<svg xmlns="http://www.w3.org/2000/svg" width="17" height="17" viewBox="0 0 17 17" fill="none">
  <g clip-path="url(#clip0_1555_4429)">
    <path d="M8.5 10.625C9.6736 10.625 10.625 9.6736 10.625 8.5C10.625 7.32639 9.6736 6.375 8.5 6.375C7.32639 6.375 6.375 7.32639 6.375 8.5C6.375 9.6736 7.32639 10.625 8.5 10.625Z" stroke="white" stroke-width="1.5" stroke-linecap="round" stroke-linejoin="round"/>
    <path d="M13.7413 10.6252C13.6471 10.8388 13.6189 11.0758 13.6606 11.3056C13.7023 11.5354 13.8118 11.7474 13.9751 11.9143L14.0176 11.9568C14.1493 12.0884 14.2538 12.2446 14.3251 12.4166C14.3964 12.5886 14.4331 12.7729 14.4331 12.9591C14.4331 13.1453 14.3964 13.3296 14.3251 13.5016C14.2538 13.6736 14.1493 13.8298 14.0176 13.9614C13.886 14.0931 13.7298 14.1976 13.5578 14.2689C13.3858 14.3402 13.2015 14.3769 13.0153 14.3769C12.8291 14.3769 12.6448 14.3402 12.4728 14.2689C12.3008 14.1976 12.1446 14.0931 12.013 13.9614L11.9705 13.9189C11.8036 13.7556 11.5915 13.6461 11.3618 13.6044C11.132 13.5627 10.895 13.5909 10.6813 13.6852C10.4718 13.775 10.2932 13.924 10.1673 14.1141C10.0415 14.3041 9.97392 14.5268 9.97301 14.7547V14.8752C9.97301 15.2509 9.82375 15.6112 9.55808 15.8769C9.2924 16.1426 8.93206 16.2918 8.55634 16.2918C8.18062 16.2918 7.82028 16.1426 7.55461 15.8769C7.28893 15.6112 7.13967 15.2509 7.13967 14.8752V14.8114C7.13419 14.577 7.0583 14.3496 6.92187 14.1588C6.78544 13.9681 6.59478 13.8228 6.37467 13.7418C6.16103 13.6475 5.92404 13.6194 5.69426 13.6611C5.46448 13.7027 5.25245 13.8123 5.08551 13.9756L5.04301 14.0181C4.91144 14.1498 4.7552 14.2543 4.58321 14.3256C4.41123 14.3969 4.22689 14.4336 4.04072 14.4336C3.85454 14.4336 3.6702 14.3969 3.49822 14.3256C3.32624 14.2543 3.16999 14.1498 3.03842 14.0181C2.90671 13.8865 2.80222 13.7303 2.73092 13.5583C2.65963 13.3863 2.62293 13.202 2.62293 13.0158C2.62293 12.8296 2.65963 12.6453 2.73092 12.4733C2.80222 12.3013 2.90671 12.1451 3.03842 12.0135L3.08092 11.971C3.24422 11.8041 3.35376 11.592 3.39543 11.3622C3.43709 11.1325 3.40896 10.8955 3.31467 10.6818C3.22488 10.4723 3.07579 10.2937 2.88575 10.1678C2.69572 10.0419 2.47302 9.9744 2.24509 9.9735H2.12467C1.74895 9.9735 1.38862 9.82424 1.12294 9.55856C0.857263 9.29289 0.708008 8.93255 0.708008 8.55683C0.708008 8.18111 0.857263 7.82077 1.12294 7.55509C1.38862 7.28942 1.74895 7.14016 2.12467 7.14016H2.18842C2.42288 7.13468 2.65026 7.05879 2.84101 6.92236C3.03176 6.78593 3.17706 6.59527 3.25801 6.37516C3.3523 6.16152 3.38042 5.92453 3.33876 5.69475C3.2971 5.46497 3.18755 5.25294 3.02426 5.086L2.98176 5.0435C2.85004 4.91193 2.74555 4.75568 2.67426 4.5837C2.60296 4.41172 2.56627 4.22738 2.56627 4.0412C2.56627 3.85503 2.60296 3.67069 2.67426 3.49871C2.74555 3.32672 2.85004 3.17048 2.98176 3.03891C3.11333 2.9072 3.26957 2.8027 3.44155 2.73141C3.61353 2.66012 3.79788 2.62342 3.98405 2.62342C4.17022 2.62342 4.35457 2.66012 4.52655 2.73141C4.69853 2.8027 4.85477 2.9072 4.98634 3.03891L5.02884 3.08141C5.19578 3.24471 5.40781 3.35425 5.63759 3.39592C5.86737 3.43758 6.10436 3.40945 6.31801 3.31516H6.37467C6.58418 3.22537 6.76285 3.07628 6.88871 2.88624C7.01456 2.6962 7.0821 2.47351 7.08301 2.24558V2.12516C7.08301 1.74944 7.23226 1.3891 7.49794 1.12343C7.76362 0.857752 8.12395 0.708496 8.49967 0.708496C8.8754 0.708496 9.23573 0.857752 9.50141 1.12343C9.76709 1.3891 9.91634 1.74944 9.91634 2.12516V2.18891C9.91725 2.41684 9.98479 2.63954 10.1106 2.82958C10.2365 3.01961 10.4152 3.16871 10.6247 3.2585C10.8383 3.35279 11.0753 3.38091 11.3051 3.33925C11.5349 3.29759 11.7469 3.18804 11.9138 3.02475L11.9563 2.98225C12.0879 2.85053 12.2442 2.74604 12.4161 2.67474C12.5881 2.60345 12.7725 2.56676 12.9586 2.56676C13.1448 2.56676 13.3292 2.60345 13.5011 2.67474C13.6731 2.74604 13.8294 2.85053 13.9609 2.98225C14.0926 3.11382 14.1971 3.27006 14.2684 3.44204C14.3397 3.61402 14.3764 3.79837 14.3764 3.98454C14.3764 4.17071 14.3397 4.35506 14.2684 4.52704C14.1971 4.69902 14.0926 4.85526 13.9609 4.98683L13.9184 5.02933C13.7551 5.19627 13.6456 5.4083 13.6039 5.63808C13.5623 5.86786 13.5904 6.10485 13.6847 6.3185V6.37516C13.7745 6.58467 13.9236 6.76334 14.1136 6.88919C14.3036 7.01505 14.5263 7.08259 14.7543 7.0835H14.8747C15.2504 7.0835 15.6107 7.23275 15.8764 7.49843C16.1421 7.7641 16.2913 8.12444 16.2913 8.50016C16.2913 8.87589 16.1421 9.23622 15.8764 9.5019C15.6107 9.76757 15.2504 9.91683 14.8747 9.91683H14.8109C14.583 9.91774 14.3603 9.98528 14.1703 10.1111C13.9802 10.237 13.8311 10.4157 13.7413 10.6252V10.6252Z" stroke="white" stroke-width="1.5" stroke-linecap="round" stroke-linejoin="round"/>
  </g>
  <defs>
    <clipPath id="clip0_1555_4429">
      <rect width="17" height="17" fill="white"/>
    </clipPath>
  </defs>
</svg>