<svg xmlns="http://www.w3.org/2000/svg" width="65" height="65" viewBox="0 0 65 65" fill="none">
  <path opacity="0.9" fill-rule="evenodd" clip-rule="evenodd" d="M38.9886 50.2309L32.2127 54.7481L14.8794 43.1926V12.0815H49.5461V38.77C49.3257 38.7555 49.1034 38.7481 48.8794 38.7481C43.3565 38.7481 38.8794 43.2253 38.8794 48.7481C38.8794 49.252 38.9167 49.7471 38.9886 50.2309ZM22.8794 30.7481L32.2127 40.0815L41.5461 30.7481L32.2127 21.4148L22.8794 30.7481Z" fill="#F3F3F3"/>
  <path opacity="0.3" d="M22.8794 30.7483L32.2127 40.0817L41.5461 30.7483L32.2127 21.415L22.8794 30.7483Z" fill="#777E90"/>
  <path d="M8.21338 45.4436L32.2134 61.4151L41.347 55.326C40.1178 53.9195 39.2761 52.1657 38.9886 50.2311L32.2127 54.7483L14.8794 43.1928V12.0817H49.5461V38.7702C52.176 38.9433 54.5282 40.1331 56.2134 41.9503V5.41505L8.21338 5.41504V45.4436Z" fill="#777E90"/>
  <path fill-rule="evenodd" clip-rule="evenodd" d="M38.8794 48.7485C38.8794 43.2257 43.3565 38.7485 48.8794 38.7485C54.4022 38.7485 58.8794 43.2257 58.8794 48.7485C58.8794 54.2714 54.4022 58.7485 48.8794 58.7485C43.3565 58.7485 38.8794 54.2714 38.8794 48.7485ZM47.8794 42.7485V50.7485H49.8794V42.7485H47.8794ZM47.8794 52.7485V54.7485H49.8794V52.7485H47.8794Z" fill="#FA6C4C"/>
</svg>