<svg xmlns="http://www.w3.org/2000/svg" width="72" height="25" viewBox="0 0 72 25" fill="none">
  <path fill-rule="evenodd" clip-rule="evenodd" d="M30.6972 23.1909C30.6973 23.1647 30.705 23.0924 30.7199 22.9736C30.7314 22.8749 30.7404 22.793 30.7469 22.7282C30.7149 22.8055 30.6773 22.8828 30.634 22.9596C30.5906 23.0367 30.5409 23.1153 30.4841 23.1957L29.1886 25L28.7658 23.1588C28.7479 23.083 28.7341 23.0098 28.7249 22.939C28.7157 22.868 28.7094 22.7978 28.7063 22.7282C28.688 22.7994 28.6646 22.8736 28.6361 22.9516C28.6076 23.0295 28.5736 23.111 28.5336 23.1957L27.7804 24.8634H27.2869L28.9118 21.3334L29.3743 23.4709C29.381 23.5048 29.3907 23.5612 29.4026 23.6398C29.4145 23.7184 29.4284 23.8156 29.4447 23.9311C29.4994 23.834 29.5782 23.7108 29.6819 23.5612C29.7094 23.521 29.7304 23.4903 29.7446 23.4686L31.2073 21.3334L31.1604 24.8634H30.662L30.6972 23.1909ZM4.66423 21.343L3.82147 24.8635H4.31515L4.87884 22.5087C4.9106 22.5779 4.94522 22.6443 4.98366 22.7076C5.02173 22.7709 5.06247 22.831 5.10627 22.8878L6.74131 24.9949L7.5835 21.4771H7.08752L6.52535 23.8248C6.4806 23.7415 6.43699 23.6669 6.39433 23.6005C6.35168 23.5341 6.30845 23.4716 6.2656 23.4132L4.66423 21.343ZM1.71245 21.477H1.18262L0.67822 23.5843C0.568236 24.0438 0.597884 24.3869 0.767737 24.6134C0.9374 24.8401 1.24899 24.9535 1.70327 24.9535C2.15717 24.9535 2.52404 24.8399 2.80388 24.6123C3.08353 24.385 3.27882 24.0422 3.38842 23.5843L3.89282 21.477H3.3561L2.86394 23.5334C2.79087 23.8385 2.66712 24.0683 2.49267 24.2215C2.31842 24.3749 2.09539 24.4516 1.82339 24.4516C1.54968 24.4516 1.36242 24.3749 1.26181 24.2215C1.16081 24.0683 1.14704 23.8385 1.22011 23.5334L1.71245 21.477ZM7.5396 24.8635L8.35023 21.4771H8.88657L8.07613 24.8635H7.5396ZM9.65816 21.4771L8.84753 24.8635H9.38406L9.76489 23.2719H11.0705L11.1861 22.7885H9.88061L10.0828 21.9442H11.3883L11.5002 21.4771H9.65816ZM11.2807 24.8635L12.0913 21.4771H12.6277L11.8172 24.8635H11.2807ZM13.3987 21.4771L12.5881 24.8635H14.4301L14.5479 24.3707H13.2424L13.5045 23.2766H14.8099L14.9255 22.7931H13.62L13.8233 21.9442H15.1288L15.2407 21.4771H13.3987ZM15.7014 24.366H16.1524C16.4003 24.366 16.5905 24.349 16.7226 24.3152C16.8548 24.2813 16.9761 24.2241 17.0872 24.144C17.2381 24.0347 17.3642 23.8986 17.4656 23.7358C17.5667 23.5732 17.6434 23.3836 17.6951 23.1677C17.7465 22.9517 17.7607 22.7628 17.7374 22.6004C17.7138 22.4374 17.653 22.3014 17.5545 22.1918C17.4805 22.1118 17.3827 22.0545 17.2607 22.0204C17.1385 21.9867 16.9395 21.9697 16.663 21.9697H16.2751L15.7014 24.366ZM15.0459 24.8635L15.8565 21.477H16.5801C17.0507 21.477 17.3759 21.5011 17.556 21.5497C17.7358 21.5985 17.8845 21.6799 18.0013 21.7939C18.1565 21.9435 18.2551 22.1356 18.2976 22.3697C18.3399 22.6042 18.325 22.8718 18.253 23.1725C18.1811 23.4732 18.0681 23.7396 17.9139 23.9716C17.7601 24.2038 17.5694 24.3953 17.3426 24.5464C17.171 24.6606 16.987 24.7419 16.7915 24.7907C16.5954 24.8391 16.3032 24.8635 15.9137 24.8635H15.0459ZM21.0033 22.8928H20.8656L21.0917 21.9486H21.2294C21.5134 21.9486 21.6993 21.9859 21.7877 22.0599C21.8761 22.1338 21.8985 22.2612 21.8552 22.4415C21.8151 22.6097 21.7376 22.7269 21.6223 22.7931C21.5071 22.8593 21.3007 22.8928 21.0033 22.8928ZM20.36 24.8635L20.7238 23.3434H21.0329C21.2734 23.3434 21.4534 23.3306 21.5733 23.3042C21.693 23.2782 21.8022 23.2342 21.9013 23.1724C22.0234 23.0955 22.1301 22.989 22.2211 22.8533C22.3122 22.7175 22.3768 22.5695 22.4155 22.409C22.4537 22.2489 22.4595 22.102 22.4329 21.9685C22.4061 21.8352 22.3504 21.7292 22.2657 21.6506C22.1961 21.5888 22.1079 21.5443 22.0012 21.5175C21.8941 21.4905 21.7202 21.4771 21.4798 21.4771H20.6682L19.8573 24.8635H20.36ZM23.0778 23.5335H23.9976L23.844 22.7607C23.8368 22.7115 23.8299 22.6549 23.824 22.5908C23.8184 22.5268 23.8146 22.4554 23.8121 22.3768C23.7765 22.4508 23.7408 22.5199 23.705 22.584C23.6694 22.6478 23.6348 22.7068 23.6007 22.7607L23.0778 23.5335ZM24.243 24.8634L24.0772 23.9914H22.7695L22.1774 24.8634H21.6141L24.055 21.343L24.8088 24.8634H24.243ZM25.9486 23.3136L25.5779 24.8635H26.1098L26.4807 23.3136L28.0568 21.4771H27.5201L26.5383 22.6127C26.5029 22.6529 26.4679 22.6967 26.4333 22.7445C26.3986 22.7921 26.364 22.8434 26.3303 22.8973C26.3181 22.8417 26.3051 22.7902 26.2917 22.7424C26.2785 22.6946 26.267 22.6561 26.2575 22.6267L25.8405 21.4771H25.2768L25.9486 23.3136ZM32.3998 21.4771L31.5889 24.8635H33.4307L33.5489 24.3707H32.2435L32.5053 23.2766H33.811L33.9265 22.7931H32.6211L32.8242 21.9442H34.1299L34.2417 21.4771H32.3998ZM34.0468 24.8635L34.8895 21.343L36.4909 23.4132C36.5337 23.4716 36.577 23.5341 36.6196 23.6005C36.6623 23.6669 36.7059 23.7415 36.7507 23.8248L37.3128 21.4771H37.809L36.9666 24.9949L35.3316 22.8878C35.2878 22.831 35.247 22.7709 35.209 22.7076C35.1705 22.6443 35.1359 22.5779 35.1041 22.5087L34.5404 24.8635H34.0468ZM38.8223 24.8635L39.521 21.9442H40.3936L40.5053 21.4771H38.2192L38.1073 21.9442H38.9843L38.2857 24.8635H38.8223ZM40.0777 24.1856L40.5547 23.9823C40.5595 24.1332 40.6062 24.2485 40.6953 24.3279C40.7845 24.4075 40.9132 24.4471 41.0819 24.4471C41.2411 24.4471 41.3788 24.4015 41.4943 24.3105C41.61 24.2196 41.6863 24.0978 41.7229 23.9451C41.7705 23.746 41.6517 23.5687 41.3677 23.4132C41.3279 23.3901 41.2973 23.373 41.2762 23.3621C40.9559 23.1802 40.7527 23.0155 40.667 22.8683C40.5815 22.721 40.5639 22.541 40.6148 22.3283C40.6808 22.0523 40.8258 21.8287 41.0494 21.6575C41.273 21.4863 41.5327 21.4006 41.829 21.4006C42.0725 21.4006 42.2648 21.4488 42.4054 21.5452C42.5461 21.6418 42.6265 21.7801 42.6464 21.9605L42.1741 22.1825C42.1332 22.0762 42.0792 21.9983 42.0123 21.9488C41.9451 21.8994 41.8602 21.8748 41.7583 21.8748C41.614 21.8748 41.4901 21.9136 41.3866 21.9903C41.2837 22.0676 41.2162 22.1709 41.185 22.3005C41.1364 22.5041 41.2774 22.6936 41.6081 22.8694L41.6187 22.8752L41.6281 22.8803L41.6406 22.8871C41.6512 22.8929 41.6602 22.8979 41.6678 22.9019C41.9572 23.0559 42.1454 23.2068 42.2317 23.3541C42.3181 23.5016 42.3352 23.6854 42.2822 23.9057C42.2055 24.2267 42.0461 24.4815 41.804 24.6703C41.5618 24.8591 41.273 24.9536 40.9381 24.9536C40.6567 24.9536 40.4423 24.8874 40.2946 24.7546C40.1466 24.6221 40.0743 24.4325 40.0777 24.1856ZM44.8524 21.4771L44.0417 24.8635H44.5783L45.3889 21.4771H44.8524ZM45.3497 24.8635L46.1924 21.343L47.7938 23.4132C47.8366 23.4716 47.8799 23.5341 47.9225 23.6005C47.9652 23.6669 48.0088 23.7415 48.0535 23.8248L48.6157 21.4771H49.1117L48.2695 24.9949L46.6345 22.8878C46.5907 22.831 46.5497 22.7709 46.5117 22.7076C46.4734 22.6443 46.4386 22.5779 46.4068 22.5087L45.8433 24.8635H45.3497ZM50.125 24.8635L50.8239 21.9442H51.6965L51.8082 21.4771H49.5221L49.4102 21.9442H50.2872L49.5886 24.8635H50.125ZM51.4079 24.8635L52.2186 21.4771H54.0606L53.9489 21.9442H52.6434L52.4401 22.7931H53.7455L53.6298 23.2766H52.3243L52.0625 24.3707H53.368L53.2499 24.8635H51.4079ZM54.9647 22.9202H54.8675L55.1001 21.9487H55.1973C55.4677 21.9487 55.6439 21.9868 55.7252 22.0635C55.8072 22.1396 55.8256 22.2712 55.7808 22.4577C55.7399 22.6306 55.6642 22.7508 55.5548 22.8187C55.4453 22.8866 55.2485 22.9202 54.9647 22.9202ZM54.3685 24.8634L54.7313 23.3481H54.7921L55.5274 24.8634H56.1341L55.3663 23.3227C55.6232 23.2921 55.834 23.1997 55.9985 23.0465C56.163 22.8929 56.2778 22.6804 56.3426 22.4089C56.3793 22.255 56.3857 22.113 56.3614 21.9837C56.3365 21.8542 56.2829 21.7483 56.2003 21.6668C56.1309 21.5987 56.0391 21.5503 55.9251 21.521C55.8113 21.4916 55.6445 21.477 55.4251 21.477H54.6766L53.8658 24.8634H54.3685ZM56.4519 24.8635L57.2626 21.4771H59.1046L58.9929 21.9442H57.6872L57.485 22.7885H58.7907L58.675 23.2719H57.3695L56.9885 24.8635H56.4519ZM60.6462 23.5335H59.7262L60.2491 22.7607C60.2832 22.7068 60.318 22.6478 60.3536 22.584C60.3891 22.5199 60.4249 22.4508 60.4607 22.3768C60.4632 22.4554 60.467 22.5268 60.4725 22.5908C60.4785 22.6549 60.4852 22.7115 60.4926 22.7607L60.6462 23.5335ZM60.7258 23.9914L60.8916 24.8634H61.4574L60.7034 21.343L58.2625 24.8634H58.826L59.418 23.9914H60.7258ZM64.9505 22.3005C64.8306 22.1679 64.694 22.0685 64.5406 22.0021C64.3876 21.9361 64.2177 21.9026 64.0312 21.9026C63.6707 21.9026 63.3486 22.0214 63.0657 22.2588C62.7824 22.4963 62.5957 22.8039 62.5052 23.1819C62.4178 23.5474 62.4559 23.8487 62.6192 24.086C62.7826 24.3236 63.032 24.4426 63.3669 24.4426C63.5626 24.4426 63.7569 24.407 63.9505 24.336C64.1441 24.2651 64.3394 24.158 64.5358 24.0143L64.3868 24.6367C64.2171 24.7431 64.041 24.8227 63.8587 24.8749C63.6762 24.9273 63.4859 24.9535 63.2875 24.9535C63.0351 24.9535 62.8116 24.9112 62.6179 24.8263C62.4239 24.7416 62.2654 24.6168 62.1427 24.4516C62.0207 24.2898 61.9425 24.0991 61.909 23.8791C61.875 23.6595 61.8878 23.4254 61.9471 23.1769C62.0066 22.9288 62.1058 22.6957 62.2445 22.4774C62.383 22.2592 62.5542 22.0675 62.7573 21.9026C62.9612 21.736 63.1793 21.6102 63.4115 21.5243C63.6439 21.439 63.8836 21.3959 64.1301 21.3959C64.3241 21.3959 64.502 21.425 64.664 21.483C64.826 21.5405 64.9756 21.6279 65.1131 21.7456L64.9505 22.3005ZM65.8129 21.4771L65.0022 24.8635H66.8442L66.9622 24.3707H65.6568L65.9186 23.2766H67.2241L67.3398 22.7931H66.0344L66.2377 21.9442H67.543L67.6549 21.4771H65.8129Z" fill="#696A6A"/>
  <path fill-rule="evenodd" clip-rule="evenodd" d="M22.9128 18.6107C23.6742 18.6107 24.3422 18.1032 24.5459 17.3697L29.3563 0.0541359H25.6652L21.5178 14.9833H6.75007L10.8975 0.0541359H7.20569L2.56225 16.7692C2.41746 17.2901 2.47178 17.7274 2.72503 18.0808C2.97847 18.4339 3.3639 18.6107 3.88245 18.6107H22.9128ZM53.301 0.58565C53.0452 0.233127 52.6508 0.0552392 52.115 0.0552392H31.8328L30.8282 3.68376H34.5187V3.68166H49.2794L48.2055 7.55922H33.4445L33.4459 7.55119H29.7569L26.6951 18.6045H30.386L32.4407 11.1856H49.0332C49.5514 11.1856 50.0391 11.0089 50.4978 10.6554C50.9555 10.3016 51.2568 9.86526 51.4012 9.34422L53.4557 1.92382C53.6057 1.38538 53.5538 0.938556 53.301 0.58565ZM55.2157 18.5261H51.5273L56.657 0H60.3456L55.2157 18.5261Z" fill="#66686C"/>
  <path d="M66.7157 0.0346123L71.3855 9.32168L61.5688 18.6063L66.7157 0.0346123Z" fill="#27803B"/>
  <path d="M63.4421 0.0346123L68.1085 9.32168L58.2877 18.6063L63.4421 0.0346123Z" fill="#E9661C"/>
</svg>