<svg xmlns="http://www.w3.org/2000/svg" width="17" height="17" viewBox="0 0 17 17" fill="none">
  <path d="M11.833 9H12.2497V10.125H11.833V9Z" fill="#777E90" stroke="#777E90"/>
  <path d="M15.2999 4.77854H14.5443V2.61187C14.5443 2.42033 14.4647 2.23663 14.323 2.10118C14.1813 1.96574 13.9892 1.88965 13.7888 1.88965H3.211C2.2998 1.88965 0.944336 2.4667 0.944336 4.05631V12.0008C0.944336 13.5904 2.2998 14.1674 3.211 14.1674H15.2999C15.5003 14.1674 15.6925 14.0913 15.8341 13.9559C15.9758 13.8204 16.0554 13.6367 16.0554 13.4452V5.50076C16.0554 5.30921 15.9758 5.12551 15.8341 4.99007C15.6925 4.85463 15.5003 4.77854 15.2999 4.77854ZM3.211 3.33409H13.0332V4.77854H3.22007C2.871 4.76987 2.45545 4.6377 2.45545 4.05631C2.45545 3.47493 2.871 3.34276 3.211 3.33409ZM14.5443 12.723H3.22007C2.871 12.7143 2.45545 12.5821 2.45545 12.0008V6.10237C2.71687 6.18543 2.97754 6.22298 3.211 6.22298H14.5443V12.723Z" fill="#777E90"/>
</svg>